<?xml version="1.0" encoding="utf-8"?>
<!-- Generator: Adobe Illustrator 14.0.0, SVG Export Plug-In . SVG Version: 6.00 Build 43363)  -->
<!DOCTYPE svg PUBLIC "-//W3C//DTD SVG 1.1//EN" "http://www.w3.org/Graphics/SVG/1.1/DTD/svg11.dtd">
<svg version="1.1" xmlns="http://www.w3.org/2000/svg" xmlns:xlink="http://www.w3.org/1999/xlink" x="0px" y="0px" width="2272px"
	 height="1872px" viewBox="0 0 2272 1872" enable-background="new 0 0 2272 1872" xml:space="preserve">
<g id="BG">
	<rect fill="#DFEDE7" width="2272" height="1872"/>
</g>
<g id="Summer_Food_Icons">
	<g>
		<g id="Cola">
			<g id="Fill_5_">
				<path fill="#912C2C" d="M1929.348,1084.018h-214.416c-3.291,0-6.256,1.98-7.492,5.028
					c-5.801,14.247-17.172,61.086,17.013,169.073c31.774,100.382,20.414,198.071,12.619,241.125
					c-2.168,11.939,7.027,22.92,19.166,22.92h131.811c12.134,0,21.328-10.98,19.161-22.92
					c-7.794-43.054-19.156-140.743,12.618-241.125c34.185-107.993,22.813-154.826,17.014-169.073
					C1935.604,1085.998,1932.639,1084.018,1929.348,1084.018L1929.348,1084.018z M1929.348,1084.018"/>
				<path fill="#7C1E1E" d="M1936.841,1089.046c-1.237-3.048-4.202-5.028-7.493-5.028h-53.701c0,0,28.048,39.658-14.504,174.102
					c-34.329,108.438-18.314,213.729-10.838,250.408c1.44,7.046-3.948,13.637-11.149,13.637h48.893
					c12.134,0,21.328-10.976,19.161-22.92c-7.794-43.054-19.156-140.738,12.618-241.125
					C1954.012,1150.132,1942.641,1103.293,1936.841,1089.046L1936.841,1089.046z M1936.841,1089.046"/>
				<path fill="#DFEDE7" d="M1903.229,1473.362c-3.544,4.405-8.977,7.279-15.182,7.279h-131.811c-6.21,0-11.639-2.874-15.182-7.279
					c-1.287,9.991-2.688,18.711-3.989,25.896c-2.163,11.941,7.037,22.906,19.171,22.906h131.811
					c12.134,0,21.328-10.965,19.166-22.906C1905.911,1492.073,1904.512,1483.354,1903.229,1473.362L1903.229,1473.362z
					 M1903.229,1473.362"/>
				<path fill="#D7E0DC" d="M1890.285,1522.042c0.019,0,0.039-0.005,0.058-0.011c10.973-1.276,18.89-11.609,16.866-22.787
					c-0.144-0.822-0.297-1.669-0.446-2.529c-0.034-0.193-0.068-0.391-0.104-0.589c-0.122-0.718-0.252-1.45-0.376-2.192l-0.094-0.549
					c-0.316-1.891-0.639-3.87-0.96-5.924c-0.014-0.084-0.024-0.169-0.039-0.252c-0.153-1.005-0.313-2.024-0.465-3.063
					c-0.011-0.05-0.016-0.099-0.021-0.145c-0.331-2.23-0.663-4.541-0.984-6.932c-0.005-0.016-0.005-0.03-0.011-0.045
					c-0.163-1.193-0.321-2.4-0.479-3.633c0-0.004,0-0.02,0-0.029c-3.544,4.405-8.977,7.279-15.182,7.279h-42.522
					c1.633,11.471,3.359,20.918,4.779,27.881c1.44,7.051-3.948,13.642-11.149,13.642h48.893c0.573,0,1.132-0.028,1.697-0.078
					C1889.923,1522.07,1890.106,1522.061,1890.285,1522.042L1890.285,1522.042z M1890.285,1522.042"/>
				<path fill="#DFEDE7" d="M1714.932,1084.018c-3.291,0-6.256,1.98-7.492,5.028c-2.405,5.898-5.755,17.394-6.439,36.5h242.279
					c-0.684-19.106-4.039-30.602-6.438-36.5c-1.237-3.048-4.202-5.028-7.493-5.028H1714.932z M1714.932,1084.018"/>
				<path fill="#D7E0DC" d="M1875.646,1084.018c0.005,0,7.863,11.125,8.941,41.528h58.691v-0.005
					c-0.382-10.738-1.609-19.066-3.039-25.351c0-0.016-0.005-0.025-0.011-0.041c-0.307-1.374-0.633-2.646-0.955-3.829
					c-0.004-0.025-0.014-0.05-0.019-0.07c-0.158-0.568-0.316-1.113-0.476-1.643c-0.015-0.044-0.025-0.094-0.039-0.138
					c-0.316-1.029-0.624-1.979-0.926-2.841c-0.021-0.06-0.039-0.114-0.06-0.174c-0.144-0.405-0.286-0.797-0.426-1.168
					c-0.023-0.06-0.05-0.113-0.068-0.172c-0.145-0.376-0.282-0.733-0.421-1.069c-0.619-1.524-1.668-2.78-2.979-3.657
					c-0.327-0.218-0.668-0.416-1.024-0.579c-1.068-0.515-2.257-0.792-3.489-0.792H1875.646z M1875.646,1084.018"/>
				<path fill="#9E4949" d="M1816.926,1224.721l-35.456-29.369c-1.391-1.153-1.578-3.217-0.431-4.603l29.375-35.456
					c1.148-1.396,3.207-1.584,4.598-0.431l35.461,29.37c1.391,1.152,1.584,3.211,0.432,4.596l-29.376,35.463
					C1820.381,1225.681,1818.317,1225.874,1816.926,1224.721L1816.926,1224.721z M1816.926,1224.721"/>
				<path fill="#9E4949" d="M1821.281,1282.856l29.958-40.029c1.174-1.568,3.396-1.89,4.964-0.712l40.04,29.949
					c1.563,1.177,1.885,3.404,0.712,4.968l-29.959,40.034c-1.173,1.573-3.395,1.89-4.963,0.717l-40.04-29.958
					C1820.43,1286.652,1820.108,1284.43,1821.281,1282.856L1821.281,1282.856z M1821.281,1282.856"/>
				<path fill="#912C2C" d="M1896.243,1272.064l-32.023-23.952c-0.984,3.281-2.004,6.602-3.082,10.007
					c-5.285,16.701-9.374,33.333-12.491,49.648l13.387,10.016c1.568,1.173,3.79,0.852,4.969-0.717l29.953-40.034
					C1898.128,1275.469,1897.806,1273.241,1896.243,1272.064L1896.243,1272.064z M1896.243,1272.064"/>
				<path fill="#9E4949" d="M1876.553,1147.691l30.804-1.223c1.208-0.044,2.228,0.896,2.271,2.104l1.223,30.806
					c0.045,1.207-0.896,2.226-2.103,2.271l-30.806,1.217c-1.208,0.046-2.227-0.891-2.271-2.098l-1.218-30.805
					C1874.409,1148.756,1875.345,1147.736,1876.553,1147.691L1876.553,1147.691z M1876.553,1147.691"/>
				<path fill="#912C2C" d="M1907.356,1146.469l-23.114,0.916c-0.644,10.283-1.97,22.03-4.256,35.402l28.762-1.139
					c1.207-0.045,2.147-1.063,2.103-2.271l-1.223-30.806C1909.584,1147.365,1908.564,1146.425,1907.356,1146.469L1907.356,1146.469z
					 M1907.356,1146.469"/>
				<path fill="#9E4949" d="M1741.495,1125.907l32.987,19.043c1.292,0.747,1.732,2.399,0.99,3.696l-19.048,32.978
					c-0.741,1.296-2.399,1.741-3.691,0.989l-32.982-19.042c-1.291-0.747-1.737-2.396-0.989-3.691l19.047-32.982
					C1738.551,1125.605,1740.204,1125.161,1741.495,1125.907L1741.495,1125.907z M1741.495,1125.907"/>
				<path fill="#9E4949" d="M1759.899,1243.154l32.364-3.285c1.271-0.129,2.404,0.792,2.533,2.063l3.285,32.369
					c0.129,1.267-0.792,2.4-2.063,2.533l-32.368,3.286c-1.271,0.13-2.405-0.792-2.533-2.063l-3.286-32.374
					C1757.701,1244.416,1758.628,1243.283,1759.899,1243.154L1759.899,1243.154z M1759.899,1243.154"/>
			</g>
			<g id="Line_5_">
				<path d="M1976.814,1017.257c-0.688-4.147-4.602-6.952-8.764-6.265l-64.276,10.688c-4.88,0.812-8.848,4.241-10.363,8.942
					l-14.766,45.778h-163.714c-6.424,0-12.135,3.836-14.55,9.774c-3.606,8.862-7.759,25.159-7.046,52.45
					c0.881,33.585,8.902,74.56,23.853,121.789c29.137,92.044,21.046,182.914,14.202,226.675c-0.203,1.287-0.41,2.573-0.619,3.845
					c-0.063,0.392-0.128,0.781-0.188,1.158c-0.332,1.954-0.668,3.894-1.01,5.805c-1.436,7.907,0.698,15.983,5.854,22.154
					c2.876,3.444,6.513,6.071,10.556,7.72c3.211,1.312,6.687,2.015,10.254,2.015h131.811c3.385,0,6.69-0.639,9.758-1.82
					c4.241-1.639,8.056-4.33,11.046-7.918c5.151-6.167,7.289-14.243,5.859-22.15c-0.316-1.742-0.623-3.509-0.926-5.285
					c-0.05-0.313-0.104-0.613-0.159-0.925c-1.049-6.275-2.004-12.738-2.845-19.296v-0.009c-1.197-9.318-2.168-18.81-2.9-28.42
					c-0.316-4.197-3.982-7.329-8.17-7.018c-4.196,0.317-7.338,3.979-7.017,8.17c0.653,8.601,1.499,17.103,2.519,25.485
					c-2.038,1.555-4.538,2.42-7.165,2.42h-131.811c-2.617,0-5.102-0.855-7.136-2.395c6.481-52.708,8.659-132.509-17.389-214.809
					c-18.053-57.037-23.091-96.492-23.161-122.655h16.841l-13.228,22.907c-2.84,4.929-1.153,11.253,3.775,14.099l32.988,19.047
					c1.618,0.935,3.389,1.376,5.141,1.376c3.569,0,7.042-1.847,8.957-5.156l19.043-32.982c2.845-4.929,1.147-11.253-3.782-14.099
					l-8.99-5.191h48.937c4.206,0,7.615-3.409,7.615-7.616c0-4.211-3.409-7.62-7.615-7.62h-109.103
					c1.149-13.776,3.737-22.021,5.36-26.011c0.069-0.172,0.242-0.276,0.44-0.276h158.795l-8.482,26.287h-11.574
					c-4.201,0-7.617,3.409-7.617,7.62c0,4.207,3.416,7.616,7.617,7.616h17.097c0.01,0,0.021,0.005,0.025,0.005
					c0.01,0,0.015-0.005,0.029-0.005h64.97c-0.009,1.639-0.029,3.325-0.079,5.067c-0.836,32.156-8.626,71.72-23.145,117.588
					c-14.87,46.972-22.09,98.368-21.472,152.768c0.05,4.172,3.449,7.522,7.616,7.522h0.083c4.213-0.044,7.582-3.494,7.533-7.699
					c-0.604-52.773,6.384-102.564,20.758-147.993c20.057-63.353,24.699-106.404,23.789-134.527c0.005-0.113,0.02-0.228,0.02-0.342
					c0-0.325-0.024-0.642-0.063-0.955c-0.768-19.686-4.262-31.849-6.934-38.415c-2.415-5.938-8.126-9.774-14.55-9.774h-34.698
					l12.87-39.9l63.031-10.48C1974.701,1025.328,1977.503,1021.408,1976.814,1017.257L1976.814,1017.257z M1744.563,1500.6
					c0.776-4.296,1.564-8.978,2.331-13.99c2.949,1.079,6.101,1.648,9.343,1.648h131.811c3.236,0,6.394-0.574,9.343-1.653
					c0.717,4.722,1.495,9.393,2.326,13.995c0.623,3.458-0.307,6.992-2.564,9.688c-1.127,1.356-2.523,2.421-4.076,3.148
					c-1.555,0.727-3.267,1.113-5.028,1.113h-131.811c-1.327,0-2.617-0.218-3.84-0.634c-2.034-0.692-3.86-1.936-5.271-3.628
					C1744.87,1507.592,1743.935,1504.058,1744.563,1500.6L1744.563,1500.6z M1741.945,1134.959l24.471,14.127l-14.128,24.482
					l-24.475-14.135L1741.945,1134.959z M1929.348,1091.639c0.199,0,0.371,0.104,0.441,0.276c1.752,4.307,4.28,12.562,5.414,26.011
					h-53.949l8.477-26.287H1929.348z M1929.348,1091.639"/>
				<path d="M1812.071,1230.59c2.024,1.678,4.483,2.494,6.934,2.494c3.128,0,6.24-1.342,8.393-3.934l29.371-35.457
					c1.854-2.241,2.73-5.067,2.458-7.963c-0.277-2.899-1.658-5.512-3.898-7.367l-35.457-29.371
					c-4.622-3.829-11.496-3.182-15.326,1.436l-29.37,35.461c-1.855,2.238-2.726,5.063-2.454,7.963
					c0.268,2.895,1.652,5.508,3.89,7.364L1812.071,1230.59z M1813.502,1163.496l28.761,23.828l-23.821,28.762l-28.763-23.828
					L1813.502,1163.496z M1813.502,1163.496"/>
				<path d="M1817.437,1293.926l40.028,29.955c1.955,1.459,4.275,2.227,6.671,2.227c0.535,0,1.069-0.04,1.613-0.119
					c2.95-0.42,5.563-1.97,7.349-4.358l29.954-40.035c1.786-2.386,2.534-5.329,2.113-8.278c-0.431-2.954-1.975-5.568-4.365-7.35
					l-40.033-29.953c-4.93-3.688-11.941-2.678-15.628,2.252l-29.954,40.033C1811.498,1283.228,1812.508,1290.234,1817.437,1293.926
					L1817.437,1293.926z M1854.902,1250.646l33.521,25.079l-25.085,33.521l-33.521-25.079L1854.902,1250.646z M1854.902,1250.646"/>
				<path d="M1877.854,1190.486c0.129,0,0.257-0.005,0.392-0.01l30.804-1.218c5.404-0.213,9.621-4.779,9.408-10.184l-1.213-30.81
					c-0.218-5.399-4.81-9.61-10.184-9.402l-30.806,1.212c-5.403,0.218-9.624,4.785-9.411,10.185l1.217,30.806
					C1868.269,1186.335,1872.623,1190.486,1877.854,1190.486L1877.854,1190.486z M1902.234,1154.298l0.787,19.953l-19.958,0.792
					l-0.786-19.958L1902.234,1154.298z M1902.234,1154.298"/>
				<path d="M1791.496,1232.287l-32.369,3.291c-2.638,0.268-5.013,1.545-6.69,3.604c-1.677,2.053-2.454,4.637-2.183,7.273
					l3.286,32.369c0.268,2.642,1.549,5.017,3.603,6.69c1.786,1.459,3.979,2.235,6.255,2.235c0.342,0,0.679-0.019,1.02-0.049
					l32.374-3.29c2.638-0.272,5.013-1.55,6.69-3.603c1.672-2.054,2.45-4.643,2.183-7.279l-3.286-32.369
					C1801.823,1235.717,1796.939,1231.752,1791.496,1232.287L1791.496,1232.287z M1768.158,1272.005l-2.217-21.809l21.813-2.217
					l2.217,21.813L1768.158,1272.005z M1768.158,1272.005"/>
			</g>
		</g>
		<g id="Taco">
			<g id="Fill_4_">
				<path fill="#A0E557" d="M951.888,1441.447h491.136c5.262-3.502,33.069-48.167,28.642-67.806
					c-4.485-19.878,7.989-46.079,0.096-64.572c-7.893-18.488-27.169-25.587-38.276-42.244
					c-10.959-16.446-8.471-45.738-22.383-59.966c-13.966-14.288-41.281-10.368-57.217-21.375
					c-16.132-11.144-24.065-39.35-41.778-46.951c-17.711-7.599-41.676,6.934-60.538,3.067
					c-18.625-3.818-35.837-26.846-55.165-26.846c-19.323,0-36.534,23.027-55.164,26.846c-18.858,3.866-42.828-10.666-60.54-3.067
					c-17.707,7.602-25.646,35.808-41.777,46.951c-15.929,11.007-43.246,7.087-57.211,21.375
					c-13.913,14.228-11.425,43.52-22.39,59.966c-11.107,16.657-30.389,23.756-38.269,42.244
					c-7.893,18.493,4.575,44.694,0.094,64.572C916.715,1393.28,946.614,1437.945,951.888,1441.447L951.888,1441.447z
					 M951.888,1441.447"/>
				<path fill="#FD8F31" d="M1118.175,1192.548c-40.406-40.405-107.394-38.921-149.63,3.317
					c-42.238,42.236-43.729,109.23-3.323,149.636c40.406,40.405,107.394,38.914,149.63-3.323
					C1157.09,1299.941,1158.574,1232.947,1118.175,1192.548L1118.175,1192.548z M1118.175,1192.548"/>
				<path fill="#EFA335" d="M1036.988,1336.798c-17.181,0-33.109-6.468-44.855-18.208c-25.497-25.502-24.012-68.485,3.323-95.808
					c13.881-13.889,31.981-21.537,50.952-21.537c17.188,0,33.116,6.467,44.862,18.214c12.121,12.128,18.583,28.593,18.189,46.371
					c-0.411,18.416-8.047,35.973-21.512,49.438C1074.065,1329.155,1055.966,1336.798,1036.988,1336.798L1036.988,1336.798z
					 M1036.988,1336.798"/>
				<path fill="#FD8F31" d="M1424.256,1195.865c-42.236-42.238-109.225-43.717-149.63-3.317
					c-40.407,40.399-38.915,107.394,3.321,149.63c42.238,42.237,109.227,43.729,149.632,3.323
					C1467.979,1305.096,1466.492,1238.102,1424.256,1195.865L1424.256,1195.865z M1424.256,1195.865"/>
				<path fill="#EFA335" d="M1355.813,1336.798c17.188,0,33.12-6.468,44.861-18.208c25.497-25.502,24.005-68.485-3.323-95.808
					c-13.882-13.889-31.977-21.537-50.952-21.537c-17.188,0-33.116,6.467-44.855,18.214c-12.129,12.128-18.59,28.593-18.197,46.371
					c0.406,18.416,8.049,35.973,21.519,49.438C1318.747,1329.155,1336.841,1336.798,1355.813,1336.798L1355.813,1336.798z
					 M1355.813,1336.798"/>
				<path fill="#FC4E51" d="M1019.902,1380.783c-4.05-27.688-35.693-45.984-70.669-40.859c-34.976,5.124-60.05,31.719-56,59.405
					c4.056,27.693,35.698,45.983,70.681,40.859C998.893,1435.064,1023.96,1408.468,1019.902,1380.783L1019.902,1380.783z
					 M1019.902,1380.783"/>
				<path fill="#FC4E51" d="M1443.639,1339.899c-34.978-5.124-66.619,13.172-70.676,40.853
					c-4.05,27.688,21.012,54.288,55.987,59.412c34.984,5.119,66.625-13.172,70.683-40.859
					C1503.689,1371.613,1478.615,1345.019,1443.639,1339.899L1443.639,1339.899z M1443.639,1339.899"/>
				<path fill="#FC4E51" d="M1257.139,1192.667c0-23.343-27.196-42.261-60.735-42.261c-33.545,0-60.737,18.918-60.737,42.261
					c0,23.338,27.192,42.261,60.737,42.261C1229.942,1234.928,1257.139,1216.005,1257.139,1192.667L1257.139,1192.667z
					 M1257.139,1192.667"/>
				<path fill="#FCCF3F" d="M1196.403,1178.688c-140.879,0-255.861,110.873-262.46,250.118c-0.322,6.891,5.226,12.634,12.123,12.634
					h500.675c6.895,0,12.443-5.743,12.115-12.634C1452.265,1289.562,1337.282,1178.688,1196.403,1178.688L1196.403,1178.688z
					 M1196.403,1178.688"/>
				<path fill="#EFA335" d="M1196.403,1178.688c-11.932,0-23.665,0.813-35.179,2.356c128.47,17.206,227.554,127.225,227.554,260.402
					h57.963c6.895,0,12.443-5.75,12.115-12.641C1452.265,1289.562,1337.282,1178.688,1196.403,1178.688L1196.403,1178.688z
					 M1196.403,1178.688"/>
			</g>
			<g id="Line_4_">
				<path d="M1492.886,1354.867c-3.371-3.579-7.159-6.807-11.264-9.694c1.903-13.41,3.859-27.274-1.444-39.701
					c-3.621-8.478-9.067-14.771-14.788-20.146c3.412-34.034-8.448-69.728-34.655-95.929c-21.798-21.804-50.434-34.332-80.637-35.292
					c-28.434-0.896-55.261,8.53-76.165,26.636c-3.502-1.037-7.033-1.991-10.576-2.893c-8.668-21.506-35.682-36.6-66.953-36.6
					c-31.272,0-58.29,15.094-66.953,36.6c-3.549,0.901-7.076,1.855-10.578,2.893c-20.896-18.105-47.725-27.537-76.164-26.636
					c-30.204,0.96-58.845,13.488-80.638,35.292c-26.207,26.201-38.072,61.895-34.66,95.929
					c-5.708,5.374-11.168,11.668-14.783,20.146c-5.303,12.427-3.346,26.291-1.449,39.701c-4.104,2.888-7.887,6.115-11.263,9.694
					c-12.528,13.298-18.13,29.554-15.749,45.77c3.543,24.232,25.109,43.53,53.834,48.352c2.541,1.037,5.279,1.609,8.065,1.609
					h500.668c2.786,0,5.53-0.572,8.071-1.609c28.726-4.826,50.292-24.119,53.835-48.352
					C1511.015,1384.421,1505.419,1368.165,1492.886,1354.867L1492.886,1354.867z M1349.513,1172.407
					c25.538,0.811,49.782,11.436,68.276,29.931c30.949,30.948,38.384,77.393,19.974,113.699
					c-3.865-7.421-8.071-14.676-12.624-21.722c5.697-19.896,2.91-41.687-7.898-60.51c-2.518-4.385-8.113-5.894-12.498-3.383
					c-4.378,2.524-5.895,8.114-3.376,12.499c5.386,9.378,8.184,19.662,8.334,29.858c-0.495-0.626-1.008-1.253-1.509-1.88
					c-0.371-0.459-0.741-0.924-1.11-1.378c-0.68-0.829-1.367-1.646-2.053-2.47c-0.758-0.907-1.521-1.814-2.291-2.715
					c-0.417-0.482-0.835-0.959-1.252-1.443c-1.074-1.224-2.147-2.445-3.246-3.65c-0.202-0.228-0.405-0.453-0.613-0.681
					c-1.319-1.449-2.656-2.893-4.016-4.319c-0.03-0.035-0.071-0.078-0.108-0.113c-8.912-9.372-18.462-18.106-28.604-26.118
					c-0.155-0.119-0.304-0.244-0.466-0.363c-1.3-1.026-2.625-2.04-3.943-3.042c-0.441-0.328-0.876-0.675-1.312-0.996
					c-0.734-0.55-1.474-1.081-2.207-1.617c-5.411-3.974-10.947-7.732-16.604-11.27c1.98-0.209,3.992-0.322,6.026-0.322
					c9.664,0,18.971,2.226,27.668,6.616c1.324,0.669,2.732,0.985,4.116,0.985c3.348,0,6.568-1.844,8.18-5.029
					c2.278-4.516,0.471-10.023-4.046-12.296c-11.275-5.698-23.361-8.584-35.918-8.584c-9.992,0-19.885,2.01-28.892,5.821
					c-7.439-3.709-15.04-7.063-22.777-10.068C1310.598,1177.191,1329.574,1171.775,1349.513,1172.407L1349.513,1172.407z
					 M1196.403,1159.558c16.299,0,31.236,5.082,40.794,13.034c-1.559-0.232-3.12-0.447-4.685-0.661
					c-0.25-0.03-0.495-0.065-0.739-0.097c-1.492-0.19-2.982-0.381-4.475-0.548c-0.345-0.036-0.691-0.071-1.037-0.108
					c-2.84-0.31-5.691-0.583-8.549-0.799c-0.293-0.024-0.591-0.054-0.883-0.071c-0.991-0.078-1.975-0.138-2.966-0.197
					c-1.031-0.065-2.063-0.138-3.102-0.185c-0.864-0.048-1.73-0.089-2.595-0.119c-1.253-0.06-2.5-0.102-3.753-0.144
					c-0.698-0.017-1.396-0.042-2.094-0.054c-1.975-0.041-3.943-0.072-5.918-0.072s-3.943,0.031-5.918,0.072
					c-0.698,0.012-1.396,0.037-2.094,0.054c-1.254,0.042-2.5,0.084-3.746,0.144c-0.872,0.03-1.742,0.071-2.603,0.119
					c-1.037,0.053-2.069,0.119-3.102,0.185c-0.989,0.06-1.98,0.119-2.965,0.197c-0.28,0.018-0.566,0.047-0.854,0.065
					c-2.869,0.222-5.732,0.495-8.59,0.805c-0.335,0.037-0.68,0.072-1.026,0.108c-1.491,0.173-2.983,0.357-4.479,0.548
					c-0.244,0.037-0.484,0.066-0.723,0.097c-1.568,0.214-3.132,0.429-4.694,0.661
					C1165.174,1164.64,1180.111,1159.558,1196.403,1159.558L1196.403,1159.558z M975.018,1202.338
					c18.487-18.495,42.737-29.12,68.271-29.931c1.045-0.035,2.088-0.048,3.126-0.048c18.797,0,36.628,5.393,51.668,15.492
					c-7.743,3.001-15.338,6.355-22.776,10.064c-9.009-3.812-18.899-5.821-28.898-5.821c-12.605,0-24.733,2.911-36.056,8.656
					c-4.505,2.278-6.306,7.79-4.021,12.295c1.609,3.185,4.832,5.018,8.172,5.018c1.39,0,2.804-0.316,4.128-0.991
					c8.734-4.426,18.069-6.67,27.776-6.67c2.041,0,4.05,0.113,6.031,0.322c-5.649,3.533-11.173,7.285-16.572,11.239
					c-0.747,0.55-1.504,1.092-2.244,1.647c-0.435,0.321-0.859,0.655-1.289,0.983c-1.331,1.002-2.654,2.022-3.968,3.055
					c-0.154,0.119-0.304,0.238-0.452,0.357c-10.142,8.018-19.706,16.746-28.612,26.124c-0.042,0.035-0.072,0.078-0.113,0.113
					c-1.355,1.427-2.691,2.87-4.016,4.325l-0.614,0.675c-1.092,1.205-2.171,2.427-3.239,3.65c-0.419,0.484-0.842,0.961-1.254,1.443
					c-0.77,0.9-1.533,1.808-2.291,2.722c-0.692,0.816-1.377,1.634-2.051,2.457c-0.377,0.46-0.741,0.925-1.116,1.39
					c-0.507,0.626-1.008,1.248-1.509,1.868c0.154-10.165,2.941-20.427,8.303-29.787c2.506-4.385,0.991-9.98-3.393-12.492
					c-4.385-2.511-9.982-0.99-12.499,3.395c-10.762,18.799-13.53,40.562-7.851,60.426c-4.551,7.046-8.757,14.301-12.623,21.722
					C936.634,1279.73,944.067,1233.286,975.018,1202.338L975.018,1202.338z M930.006,1386.754c-0.107,0.536-0.22,1.08-0.334,1.622
					c-0.195,1.039-0.392,2.077-0.589,3.114c-0.174,0.919-0.334,1.837-0.495,2.763c-0.155,0.877-0.312,1.753-0.453,2.636
					c-0.287,1.749-0.562,3.498-0.819,5.245c-0.07,0.494-0.13,0.989-0.195,1.479c-0.203,1.455-0.4,2.911-0.573,4.366
					c-0.084,0.645-0.162,1.295-0.234,1.945c-0.167,1.432-0.316,2.87-0.459,4.308c-0.054,0.513-0.107,1.025-0.154,1.539
					c-0.179,1.915-0.347,3.83-0.484,5.75c-0.029,0.431-0.054,0.859-0.077,1.289c-0.072,1.02-0.144,2.04-0.203,3.066
					c-12.421-6.043-20.939-16.148-22.658-27.896c-1.552-10.559,2.344-21.409,10.965-30.556c3.437-3.638,7.439-6.836,11.896-9.533
					c0.273-0.138,0.536-0.285,0.793-0.453c4.253-2.482,8.884-4.522,13.811-6.044C935.71,1362.908,932.465,1374.715,930.006,1386.754
					L930.006,1386.754z M928.407,1335.991c-1.127-8.911-1.599-17.115,1.057-23.331c0.727-1.693,1.587-3.28,2.564-4.802
					c2.613,8.291,6.211,16.315,10.84,23.892C937.863,1332.765,933.025,1334.19,928.407,1335.991L928.407,1335.991z
					 M1449.676,1429.845c-0.012,0.076-0.036,0.154-0.055,0.226c-0.022,0.097-0.054,0.179-0.076,0.27
					c-0.299,0.786-0.907,1.348-1.474,1.628l-0.054,0.03c-0.353,0.166-0.764,0.298-1.276,0.298H946.066
					c-0.507,0-0.931-0.132-1.271-0.298l-0.06-0.03c-0.561-0.28-1.176-0.842-1.468-1.628c-0.037-0.091-0.065-0.173-0.09-0.264
					c-0.019-0.077-0.029-0.155-0.047-0.231c-0.031-0.187-0.047-0.388-0.041-0.604c0.088-1.956,0.208-3.908,0.351-5.853
					c0.041-0.65,0.101-1.295,0.149-1.939c0.101-1.299,0.208-2.588,0.329-3.882c0.07-0.8,0.16-1.593,0.238-2.387
					c0.119-1.134,0.238-2.261,0.363-3.383c0.107-0.89,0.222-1.778,0.334-2.667c0.131-1.014,0.256-2.034,0.4-3.042
					c0.136-0.979,0.286-1.956,0.429-2.936c0.138-0.889,0.273-1.777,0.417-2.666c0.179-1.099,0.365-2.19,0.556-3.282
					c0.125-0.727,0.261-1.455,0.393-2.183c0.233-1.241,0.472-2.487,0.716-3.724c0.107-0.523,0.209-1.036,0.323-1.556
					c0.292-1.444,0.603-2.888,0.93-4.325c0.049-0.228,0.103-0.441,0.15-0.669c3.27-14.274,7.773-28.26,13.506-41.843
					c0.095-0.215,0.154-0.429,0.226-0.65c0.441-1.045,0.901-2.075,1.361-3.113c0.078-0.15,0.161-0.288,0.226-0.436
					c8.203-18.482,18.511-35.746,30.593-51.509c0.191-0.25,0.375-0.488,0.56-0.732c1.015-1.308,2.041-2.595,3.067-3.878
					c0.411-0.507,0.817-1.026,1.234-1.533c0.735-0.896,1.48-1.777,2.225-2.667c0.704-0.835,1.402-1.677,2.125-2.512
					c0.172-0.203,0.357-0.405,0.53-0.608c5.149-5.924,10.589-11.633,16.322-17.121c2.936-2.811,5.937-5.536,8.979-8.186
					c0.048-0.042,0.089-0.083,0.138-0.119c1.377-1.205,2.779-2.386,4.182-3.556c0.275-0.22,0.554-0.454,0.829-0.68
					c1.223-1.008,2.451-1.999,3.693-2.982c0.519-0.413,1.039-0.823,1.556-1.229c1.039-0.812,2.077-1.611,3.126-2.404
					c0.823-0.62,1.646-1.229,2.476-1.837c0.788-0.579,1.576-1.164,2.363-1.736c1.289-0.919,2.578-1.825,3.877-2.727
					c0.371-0.256,0.741-0.513,1.11-0.77c20.11-13.732,42.273-24.626,65.908-32.149c0.103-0.035,0.197-0.084,0.298-0.119
					c6.211-1.969,12.504-3.687,18.864-5.166c0.024-0.006,0.054-0.006,0.078-0.013c37.751-8.798,77.822-8.798,115.573,0
					c0.029,0.007,0.06,0.007,0.082,0.013c6.359,1.479,12.648,3.197,18.858,5.166c0.101,0.031,0.197,0.084,0.304,0.113
					c23.631,7.529,45.794,18.423,65.904,32.155c0.369,0.251,0.738,0.514,1.108,0.77c1.301,0.901,2.595,1.808,3.878,2.727
					c0.794,0.572,1.58,1.157,2.368,1.73c0.823,0.613,1.646,1.223,2.47,1.843c1.051,0.793,2.088,1.593,3.126,2.404
					c0.52,0.406,1.038,0.811,1.563,1.229c1.235,0.978,2.465,1.975,3.687,2.982c0.275,0.226,0.556,0.453,0.829,0.68
					c1.402,1.17,2.8,2.351,4.184,3.556c0.047,0.036,0.089,0.071,0.137,0.119c3.049,2.649,6.044,5.375,8.978,8.186
					c5.733,5.482,11.175,11.197,16.322,17.121c0.179,0.203,0.357,0.405,0.538,0.608c0.715,0.835,1.406,1.671,2.116,2.512
					c0.747,0.89,1.492,1.771,2.226,2.667c0.418,0.507,0.823,1.026,1.235,1.533c1.032,1.283,2.059,2.57,3.066,3.878l0.561,0.727
					c12.087,15.769,22.389,33.026,30.592,51.515c0.065,0.147,0.149,0.285,0.228,0.436c0.458,1.038,0.918,2.068,1.359,3.113
					c0.071,0.216,0.138,0.436,0.228,0.65c5.733,13.583,10.243,27.568,13.505,41.849c0.055,0.222,0.103,0.436,0.149,0.657
					c0.329,1.443,0.639,2.887,0.931,4.337c0.114,0.514,0.215,1.026,0.322,1.544c0.25,1.242,0.49,2.488,0.716,3.729
					c0.132,0.728,0.27,1.456,0.395,2.178c0.19,1.097,0.382,2.188,0.554,3.287c0.144,0.889,0.281,1.771,0.419,2.66
					c0.148,0.985,0.291,1.962,0.429,2.947c0.144,1.002,0.27,2.022,0.4,3.03c0.113,0.889,0.226,1.777,0.333,2.673
					c0.131,1.122,0.246,2.249,0.365,3.376c0.076,0.801,0.166,1.594,0.244,2.394c0.119,1.294,0.214,2.583,0.316,3.878
					c0.053,0.648,0.112,1.293,0.16,1.943c0.131,1.944,0.25,3.896,0.347,5.853
					C1449.729,1429.457,1449.705,1429.653,1449.676,1429.845L1449.676,1429.845z M1449.949,1331.732
					c4.619-7.57,8.215-15.589,10.834-23.874c0.973,1.521,1.838,3.108,2.554,4.802c2.654,6.216,2.194,14.414,1.067,23.326
					c-0.113-0.049-0.231-0.077-0.34-0.12c-1.234-0.477-2.493-0.931-3.758-1.347c-0.322-0.109-0.645-0.222-0.967-0.322
					c-1.396-0.448-2.804-0.866-4.229-1.248c-0.298-0.082-0.603-0.148-0.907-0.227c-1.175-0.297-2.351-0.572-3.543-0.822
					C1450.422,1331.847,1450.189,1331.781,1449.949,1331.732L1449.949,1331.732z M1490.529,1397.98
					c-1.719,11.748-10.243,21.854-22.658,27.896c-0.053-1.026-0.131-2.047-0.197-3.061c-0.03-0.436-0.059-0.864-0.09-1.301
					c-0.137-1.914-0.298-3.829-0.477-5.744c-0.049-0.514-0.102-1.032-0.155-1.546c-0.144-1.431-0.298-2.863-0.46-4.294
					c-0.076-0.657-0.148-1.308-0.232-1.958c-0.179-1.449-0.369-2.898-0.566-4.342c-0.065-0.503-0.131-0.997-0.209-1.498
					c-0.25-1.747-0.525-3.496-0.811-5.239c-0.144-0.889-0.305-1.765-0.454-2.647c-0.166-0.92-0.328-1.831-0.501-2.751
					c-0.19-1.037-0.382-2.081-0.591-3.126c-0.107-0.53-0.22-1.067-0.328-1.599c-2.451-12.031-5.696-23.839-9.73-35.346
					c0.354,0.106,0.704,0.22,1.058,0.334c0.595,0.191,1.187,0.398,1.777,0.602c0.674,0.244,1.349,0.495,2.01,0.758
					c0.341,0.131,0.675,0.274,1.014,0.412c2.828,1.175,5.561,2.523,8.18,4.068c0.113,0.066,0.238,0.113,0.352,0.173
					c4.534,2.72,8.621,5.954,12.104,9.658C1488.179,1376.571,1492.073,1387.422,1490.529,1397.98L1490.529,1397.98z
					 M1490.529,1397.98"/>
				<path d="M1092.254,1145.455c5.764-0.108,12.332,1.3,19.293,2.779c7.433,1.574,15.046,3.186,22.61,3.186
					c2.989,0,5.966-0.25,8.919-0.854c10.262-2.105,19.328-8.405,28.092-14.496c9.003-6.257,17.51-12.158,25.235-12.158
					c7.731,0,16.233,5.906,25.234,12.158c8.77,6.091,17.838,12.391,28.093,14.496c10.44,2.137,21.16-0.136,31.534-2.332
					c7.624-1.622,14.831-3.145,20.952-2.701c5.028,0.363,9.426-3.437,9.783-8.484c0.358-5.041-3.437-9.42-8.478-9.783
					c-8.698-0.621-17.521,1.253-26.052,3.06c-8.931,1.892-17.372,3.676-24.065,2.303c-6.575-1.343-13.739-6.322-21.321-11.592
					c-10.923-7.587-22.217-15.433-35.681-15.433c-13.459,0-24.758,7.846-35.676,15.433c-7.581,5.27-14.746,10.249-21.325,11.592
					c-6.694,1.379-15.131-0.411-24.06-2.303c-7.642-1.622-15.559-3.287-23.368-3.174c-5.054,0.084-9.092,4.242-9.009,9.295
					C1083.037,1141.506,1087.225,1145.544,1092.254,1145.455L1092.254,1145.455z M1092.254,1145.455"/>
			</g>
		</g>
		<g id="Pizza">
			<g id="Fill_3_">
				<path fill="#EFA335" d="M676.841,1091.354c-130.094,0-247.866,52.731-333.12,137.981l310.34,310.34
					c8.408,8.407,22.779,2.454,22.779-9.433V1091.354z M676.841,1091.354"/>
				<path fill="#FD8F31" d="M619.269,1094.843v410.04l34.793,34.797c8.408,8.408,22.779,2.45,22.779-9.432v-438.894
					C657.349,1091.354,638.138,1092.541,619.269,1094.843L619.269,1094.843z M619.269,1094.843"/>
				<path fill="#FC4E51" d="M644.794,1171.64c0,14.094-11.427,25.524-25.525,25.524s-25.524-11.431-25.524-25.524
					c0-14.099,11.426-25.529,25.524-25.529S644.794,1157.541,644.794,1171.64L644.794,1171.64z M644.794,1171.64"/>
				<path fill="#FC4E51" d="M542.492,1334.488c0,12.746-10.332,23.08-23.081,23.08c-12.748,0-23.085-10.334-23.085-23.08
					c0-12.748,10.337-23.081,23.085-23.081C532.16,1311.407,542.492,1321.74,542.492,1334.488L542.492,1334.488z M542.492,1334.488"
					/>
				<path fill="#FC4E51" d="M654.359,1331.014c0,13.342-10.823,24.159-24.169,24.159c-13.341,0-24.159-10.817-24.159-24.159
					c0-13.347,10.817-24.159,24.159-24.159C643.536,1306.854,654.359,1317.667,654.359,1331.014L654.359,1331.014z
					 M654.359,1331.014"/>
				<path fill="#DFEDE7" d="M622.045,1396.602h-5.583c-14.494,0-26.237,11.744-26.237,26.238c0,3.914,3.167,7.086,7.082,7.086h7.071
					c1.594,0,2.855,1.336,2.772,2.919l-0.584,11.021c-0.184,3.399,2.523,6.26,5.929,6.26h13.515c3.409,0,6.116-2.86,5.933-6.26
					l-0.584-11.021c-0.083-1.583,1.178-2.919,2.772-2.919h7.071c3.915,0,7.082-3.172,7.082-7.086
					C648.287,1408.35,636.544,1396.602,622.045,1396.602L622.045,1396.602z M622.045,1396.602"/>
				<path fill="#DFEDE7" d="M519.411,1233.229v6.581c0,17.084,13.847,30.929,30.929,30.929c4.613,0,8.354-3.741,8.354-8.353v-8.333
					c0-1.876,1.568-3.371,3.445-3.271l12.985,0.691c4.008,0.213,7.373-2.979,7.373-6.992v-15.924c0-4.013-3.37-7.211-7.373-6.998
					l-12.985,0.693c-1.876,0.099-3.445-1.391-3.445-3.266v-8.339c0-4.607-3.741-8.349-8.354-8.349
					C533.258,1202.301,519.411,1216.147,519.411,1233.229L519.411,1233.229z M519.411,1233.229"/>
				<path fill="#FCCF3F" d="M665.593,1039.948c-1.331-0.01-2.663-0.021-3.994-0.021c-137.585,0-262.145,55.771-352.309,145.934
					l-0.381,0.381c-10.407,10.433-10.392,27.5,0.029,37.917l19.513,19.517c10.525,10.526,27.746,10.521,38.262-0.005l0.192-0.198
					c0.055-0.054,0.109-0.108,0.164-0.163c8.932-8.922,23.486-8.67,32.21,0.456l39.747,41.572c5.399,5.646,14.34,5.746,19.864,0.224
					c5.527-5.528,5.631-14.668,0.227-20.313l-28.608-29.93c-5.285-5.528-5.586-14.347-0.312-19.889
					c5.631-5.914,14.989-5.864,20.567-0.029l9.011,9.416c5.285,5.533,14.078,6.227,19.849,1.204
					c6.166-5.355,6.542-14.714,0.96-20.542l-6.533-6.84c-10.574-11.055-7.353-29.255,6.424-35.916
					c54.771-26.476,116.212-41.315,181.122-41.315c1.232,0,2.465,0.009,3.696,0.014c14.875,0.14,26.98-11.931,26.98-26.806v-27.826
					C692.28,1052.027,680.354,1040.076,665.593,1039.948L665.593,1039.948z M665.593,1039.948"/>
				<path fill="#EFA335" d="M665.593,1039.948c-1.331-0.01-2.663-0.021-3.994-0.021c-9.299,0-18.542,0.268-27.712,0.773v81.626
					c9.16-0.604,18.399-0.92,27.712-0.92c1.232,0,2.465,0.009,3.696,0.014c14.875,0.14,26.98-11.931,26.98-26.806v-27.826
					C692.28,1052.027,680.354,1040.076,665.593,1039.948L665.593,1039.948z M665.593,1039.948"/>
			</g>
			<g id="Line_3_">
				<path d="M665.661,1032.357c-1.355-0.01-2.711-0.021-4.063-0.021c-68.285,0-134.526,13.372-196.894,39.758
					c-60.233,25.475-114.327,61.945-160.793,108.408l-0.376,0.381c-13.392,13.416-13.371,35.243,0.035,48.649l19.512,19.517
					c6.528,6.522,15.222,10.116,24.496,10.116h0.01c9.278-0.006,17.974-3.599,24.506-10.13l0.346-0.353
					c2.796-2.785,6.503-4.32,10.467-4.32h0.184c4.082,0.05,7.882,1.703,10.704,4.652l39.747,41.572
					c4.032,4.222,9.466,6.583,15.291,6.647h0.243c5.735,0,11.119-2.232,15.192-6.3c8.432-8.438,8.59-22.313,0.346-30.934
					l-28.612-29.93c-2.553-2.672-2.687-6.889-0.302-9.402c1.267-1.326,2.97-2.059,4.795-2.059h0.01c1.82,0,3.518,0.723,4.775,2.039
					l9.007,9.422c8.214,8.591,21.536,9.328,30.33,1.683c4.548-3.959,7.206-9.441,7.482-15.454
					c0.272-5.924-1.919-11.783-6.021-16.068l-6.533-6.833c-3.359-3.515-4.79-8.279-3.923-13.065
					c0.855-4.75,3.835-8.674,8.165-10.768c55.681-26.91,115.51-40.559,177.817-40.559c1.212,0,2.42,0.004,3.628,0.015
					c9.248,0.099,17.894-3.443,24.445-9.937c6.577-6.518,10.194-15.207,10.194-24.466v-27.831
					C699.871,1047.965,684.526,1032.521,665.661,1032.357L665.661,1032.357z M684.684,1094.62c0,5.171-2.024,10.03-5.701,13.668
					c-3.652,3.622-8.507,5.631-13.619,5.542c-1.256-0.01-2.509-0.015-3.766-0.015c-64.619,0-126.668,14.152-184.423,42.067
					c-8.759,4.231-14.771,12.154-16.503,21.744c-1.742,9.625,1.133,19.196,7.887,26.263l6.539,6.833
					c1.256,1.318,1.904,3.055,1.825,4.875c-0.083,1.822-0.891,3.489-2.276,4.696c-2.617,2.276-6.83,1.95-9.382-0.722l-9.007-9.423
					c-4.097-4.281-9.837-6.735-15.76-6.735h-0.021c-6.018,0.006-11.618,2.415-15.781,6.784c-8.031,8.434-7.888,21.774,0.327,30.365
					l28.608,29.929c2.543,2.658,2.489,7.097-0.104,9.699c-1.217,1.212-2.835,1.842-4.528,1.855
					c-1.703-0.019-3.291-0.717-4.483-1.954l-39.747-41.578c-5.667-5.929-13.307-9.244-21.507-9.338
					c-0.123-0.005-0.242-0.005-0.361-0.005c-8.017,0-15.529,3.103-21.175,8.738l-0.198,0.199l-0.182,0.188
					c-3.658,3.657-8.548,5.672-13.763,5.672h-0.005c-5.216,0-10.099-2.01-13.751-5.662l-19.517-19.517
					c-7.492-7.492-7.502-19.686-0.005-27.197l0.361-0.361c45.056-45.066,97.531-80.444,155.959-105.157
					c60.481-25.579,124.734-38.55,190.976-38.55c1.311,0,2.619,0.005,3.925,0.015c10.565,0.094,19.161,8.73,19.161,19.25V1094.62z
					 M684.684,1094.62"/>
				<path d="M676.841,1148.248c-4.197,0-7.597,3.4-7.597,7.596v374.399c0,3.563-2.711,4.964-3.547,5.311
					c-0.833,0.341-3.741,1.272-6.261-1.243l-267.035-267.035c-2.964-2.964-7.774-2.964-10.738,0c-2.964,2.965-2.964,7.775,0,10.739
					l267.035,267.035c4.053,4.053,9.278,6.187,14.667,6.187c2.711,0,5.473-0.545,8.146-1.648c7.967-3.302,12.92-10.714,12.92-19.345
					v-374.399C684.432,1151.648,681.032,1148.248,676.841,1148.248L676.841,1148.248z M676.841,1148.248"/>
				<path d="M619.269,1138.519c-18.265,0-33.12,14.856-33.12,33.121c0,18.261,14.855,33.116,33.12,33.116
					s33.121-14.855,33.121-33.116C652.39,1153.375,637.534,1138.519,619.269,1138.519L619.269,1138.519z M619.269,1189.573
					c-9.887,0-17.934-8.046-17.934-17.934c0-9.893,8.047-17.933,17.934-17.933c9.888,0,17.93,8.04,17.93,17.933
					C637.198,1181.527,629.156,1189.573,619.269,1189.573L619.269,1189.573z M619.269,1189.573"/>
				<path d="M488.735,1334.488c0,16.913,13.762,30.676,30.676,30.676c16.915,0,30.672-13.763,30.672-30.676
					c0-16.915-13.757-30.677-30.672-30.677C502.497,1303.812,488.735,1317.573,488.735,1334.488L488.735,1334.488z
					 M519.411,1319.003c8.542,0,15.49,6.949,15.49,15.485c0,8.541-6.948,15.488-15.49,15.488c-8.541,0-15.489-6.947-15.489-15.488
					C503.922,1325.952,510.871,1319.003,519.411,1319.003L519.411,1319.003z M519.411,1319.003"/>
				<path d="M630.195,1299.253c-17.507,0-31.754,14.252-31.754,31.761c0,17.508,14.247,31.755,31.754,31.755
					c17.513,0,31.756-14.247,31.756-31.755C661.951,1313.505,647.704,1299.253,630.195,1299.253L630.195,1299.253z
					 M630.195,1347.577c-9.135,0-16.567-7.428-16.567-16.563c0-9.135,7.432-16.568,16.567-16.568s16.563,7.434,16.563,16.568
					C646.758,1340.149,639.33,1347.577,630.195,1347.577L630.195,1347.577z M630.195,1347.577"/>
				<path d="M655.884,1422.84c0-18.657-15.183-33.839-33.833-33.839h-5.583c-18.661,0-33.844,15.182-33.844,33.839
					c0,8.096,6.593,14.678,14.683,14.678h1.99l-0.317,5.942c-0.194,3.696,1.153,7.354,3.697,10.036
					c2.542,2.687,6.126,4.226,9.822,4.226h13.515c3.697,0,7.275-1.539,9.818-4.226c2.549-2.683,3.896-6.34,3.702-10.036
					l-0.317-5.942h1.99C649.296,1437.522,655.884,1430.936,655.884,1422.84L655.884,1422.84z M634.13,1422.335
					c-2.832,0-5.578,1.177-7.522,3.23c-1.955,2.059-2.983,4.865-2.83,7.687l0.494,9.278H614.24l0.496-9.278
					c0.153-2.832-0.88-5.633-2.835-7.687c-1.944-2.059-4.691-3.23-7.522-3.23h-6.552c0.267-10.056,8.527-18.142,18.642-18.142h5.583
					c10.109,0,18.369,8.086,18.635,18.142H634.13z M634.13,1422.335"/>
				<path d="M550.34,1194.705c-21.244,0-38.524,17.281-38.524,38.529v6.576c0,21.24,17.281,38.521,38.524,38.521
					c8.79,0,15.944-7.146,15.944-15.939v-3.777l8.432,0.446c3.989,0.218,7.928-1.237,10.817-3.984
					c2.895-2.746,4.553-6.606,4.553-10.595v-15.924c0-3.989-1.658-7.85-4.553-10.596c-2.889-2.741-6.848-4.195-10.817-3.982
					l-8.432,0.449v-3.775C566.284,1201.86,559.133,1194.705,550.34,1194.705L550.34,1194.705z M574.905,1229.182v14.678
					l-12.367-0.658c-2.974-0.148-5.898,0.926-8.052,2.964c-2.152,2.044-3.394,4.919-3.394,7.889v8.333
					c0,0.421-0.337,0.757-0.752,0.757c-12.866,0-23.337-10.466-23.337-23.333v-6.581c0-12.866,10.472-23.338,23.337-23.338
					c0.416,0,0.752,0.343,0.752,0.758v8.339c0,2.969,1.242,5.838,3.394,7.883c2.153,2.044,5.088,3.118,8.052,2.963L574.905,1229.182
					z M574.905,1229.182"/>
			</g>
		</g>
		<g id="French_Fries">
			<g id="Fill_2_">
				<path fill="#FCCF3F" d="M1791.455,648.353l-19.324,1.88c-6.7,0.654-12.826-3.988-13.767-10.456l-42.212-291.585
					c-1.236-8.541,4.137-16.29,11.961-17.167l30.201-3.385c7.858-0.885,14.965,5.488,15.795,14.099l28.332,293.719
					C1803.069,641.969,1798.171,647.699,1791.455,648.353L1791.455,648.353z M1791.455,648.353"/>
				<path fill="#EFC03C" d="M1741.291,670.502l-19.195,0.955c-6.655,0.332-12.608-4.498-13.355-10.867l-33.77-287.042
					c-0.99-8.408,4.557-15.687,12.337-16.133l29.993-1.711c7.799-0.446,14.652,6.136,15.236,14.579l19.977,288.12
					C1752.96,664.796,1747.952,670.17,1741.291,670.502L1741.291,670.502z M1741.291,670.502"/>
				<path fill="#FCCF3F" d="M1712.595,690.593l-18.81,2.163c-6.522,0.752-12.788-3.597-14.068-9.792l-57.543-278.481
					c-1.677-8.135,3.132-15.648,10.714-16.652l29.271-3.874c7.616-1.01,14.905,4.923,16.201,13.133l44.267,280.901
					C1723.609,684.24,1719.137,689.836,1712.595,690.593L1712.595,690.593z M1712.595,690.593"/>
				<path fill="#FCCF3F" d="M1835.299,648.353l19.324,1.88c6.701,0.654,12.832-3.988,13.768-10.456l42.212-291.58
					c1.236-8.541-4.138-16.295-11.967-17.167l-30.201-3.39c-7.848-0.88-14.954,5.488-15.786,14.099l-28.335,293.719
					C1823.685,641.969,1828.584,647.699,1835.299,648.353L1835.299,648.353z M1835.299,648.353"/>
				<path fill="#EFC03C" d="M1885.469,670.502l19.189,0.955c6.661,0.332,12.609-4.498,13.356-10.867l33.769-287.042
					c0.991-8.408-4.552-15.687-12.331-16.133l-30.004-1.711c-7.788-0.446-14.647,6.136-15.226,14.579l-19.983,288.12
					C1873.795,664.796,1878.803,670.17,1885.469,670.502L1885.469,670.502z M1885.469,670.502"/>
				<path fill="#FCCF3F" d="M1914.154,690.593l18.82,2.163c6.517,0.752,12.782-3.597,14.059-9.792l57.542-278.476
					c1.683-8.136-3.128-15.653-10.708-16.658l-29.271-3.874c-7.611-1.004-14.906,4.923-16.198,13.138l-44.27,280.896
					C1903.145,684.24,1907.618,689.836,1914.154,690.593L1914.154,690.593z M1914.154,690.593"/>
				<path fill="#EFC03C" d="M1819.969,679.806h-19.176c-6.656,0-12.134-5.067-12.297-11.401l-7.3-285.474
					c-0.218-8.358,5.968-15.241,13.753-15.241h29.979c7.778,0,13.989,6.883,13.796,15.241l-6.492,285.474
					C1832.088,674.738,1826.624,679.806,1819.969,679.806L1819.969,679.806z M1819.969,679.806"/>
				<path fill="#FCCF3F" d="M1820.785,706.072l-17.611,7.225c-6.113,2.505-13.174-0.015-15.871-5.68l-121.21-255.07
					c-3.543-7.458-0.648-16.023,6.468-18.998l27.426-11.466c7.12-2.978,15.573,0.852,18.749,8.478l108.74,260.567
					C1829.891,696.913,1826.901,703.559,1820.785,706.072L1820.785,706.072z M1820.785,706.072"/>
				<path fill="#EFC03C" d="M1820.969,751.609l-19.013,0.881c-6.602,0.302-12.406-4.449-13.034-10.694L1760.61,460.82
					c-0.831-8.214,4.78-15.311,12.481-15.716l29.686-1.568c7.71-0.41,14.371,6.042,14.802,14.291l14.722,281.955
					C1832.622,746.052,1827.574,751.307,1820.969,751.609L1820.969,751.609z M1820.969,751.609"/>
				<path fill="#EFC03C" d="M1903.011,704.489l18.473,0.831c6.409,0.288,12.159-4.206,12.906-10.109l33.512-264.636
					c0.976-7.705-4.31-14.361-11.757-14.741l-28.717-1.471c-7.458-0.38-14.05,5.672-14.648,13.406l-20.517,265.542
					C1891.808,699.234,1896.598,704.203,1903.011,704.489L1903.011,704.489z M1903.011,704.489"/>
				<path fill="#FCCF3F" d="M1831.914,747.374l20.067,3.162c6.967,1.104,13.52-3.608,14.711-10.555l47.127-275.28
					c1.217-7.086-3.599-13.792-10.695-14.906l-27.351-4.314c-7.096-1.119-13.736,3.78-14.767,10.892l-39.846,276.433
					C1820.156,739.782,1824.946,746.274,1831.914,747.374L1831.914,747.374z M1831.914,747.374"/>
				<path fill="#FC4E51" d="M1906.792,497.579c-4.014,0-7.582,2.494-9.018,6.246c-13.024,33.917-45.893,58.007-84.397,58.007
					s-71.373-24.09-84.398-58.007c-1.438-3.751-5.002-6.246-9.016-6.246h-88.477c-5.977,0-10.52,5.389-9.501,11.282l54.198,314.383
					c0.796,4.627,4.809,8.007,9.505,8.007h255.382c4.695,0,8.704-3.38,9.506-8.007l54.196-314.383
					c1.015-5.898-3.522-11.282-9.505-11.282H1906.792z M1906.792,497.579"/>
				<path fill="#EA3942" d="M1995.268,497.579h-60.833c5.983,0,10.521,5.389,9.501,11.282l-54.196,314.388
					c-0.802,4.623-4.811,8.002-9.502,8.002h60.833c4.695,0,8.704-3.38,9.506-8.002l54.196-314.388
					C2005.787,502.963,2001.25,497.579,1995.268,497.579L1995.268,497.579z M1995.268,497.579"/>
				<path fill="#F3E8D7" d="M1979.674,654.429H1647.08l10.521,61.051h311.547L1979.674,654.429z M1979.674,654.429"/>
				<path fill="#E5D8C6" d="M1979.674,654.429h-60.833l-10.525,61.051h60.833L1979.674,654.429z M1979.674,654.429"/>
				<path fill="#EFA335" d="M1892.604,686.773c0,43.75-35.472,79.222-79.227,79.222c-43.756,0-79.227-35.472-79.227-79.222
					c0-43.76,35.471-79.227,79.227-79.227C1857.132,607.547,1892.604,643.013,1892.604,686.773L1892.604,686.773z M1892.604,686.773
					"/>
				<path fill="#FD8F31" d="M1849.17,616.098c2.168,7.23,3.351,14.891,3.351,22.822c0,43.755-35.472,79.227-79.227,79.227
					c-12.881,0-25.035-3.097-35.788-8.551c9.803,32.621,40.054,56.4,75.871,56.4c43.755,0,79.223-35.472,79.223-79.222
					C1892.604,655.899,1874.932,629.171,1849.17,616.098L1849.17,616.098z M1849.17,616.098"/>
			</g>
			<g id="Line_2_">
				<path d="M1813.377,599.946c-47.878,0-86.828,38.95-86.828,86.828c0,47.872,38.95,86.823,86.828,86.823
					c47.877,0,86.823-38.951,86.823-86.823C1900.2,638.896,1861.254,599.946,1813.377,599.946L1813.377,599.946z M1813.377,758.394
					c-39.494,0-71.626-32.131-71.626-71.621c0-39.495,32.132-71.626,71.626-71.626s71.625,32.131,71.625,71.626
					C1885.002,726.263,1852.871,758.394,1813.377,758.394L1813.377,758.394z M1813.377,758.394"/>
				<path d="M1995.268,489.978h-0.594l17.344-83.957c1.282-6.186,0.016-12.545-3.474-17.45c-3.266-4.602-8.125-7.542-13.683-8.273
					l-29.271-3.88c-2.203-0.292-4.395-0.203-6.518,0.199l0.257-2.183c0.747-6.329-1.073-12.645-4.998-17.315
					c-3.676-4.379-8.803-6.968-14.449-7.29l-21.676-1.242c0.714-6.157-0.944-12.348-4.601-17.083
					c-3.52-4.553-8.537-7.403-14.119-8.032l-30.206-3.389c-5.582-0.63-11.125,1.034-15.618,4.676
					c-4.834,3.924-7.962,9.847-8.585,16.246l-2.747,28.485c-0.727-1.084-1.549-2.099-2.464-3.034
					c-4.013-4.107-9.318-6.368-14.939-6.368h-29.979c-3.989,0-7.8,1.158-11.12,3.285l-2.157-22.368
					c-0.613-6.398-3.746-12.321-8.586-16.246c-4.483-3.642-10.025-5.3-15.617-4.676l-30.201,3.389
					c-5.587,0.628-10.6,3.479-14.124,8.032c-3.656,4.735-5.31,10.926-4.598,17.083l-21.674,1.242
					c-5.642,0.322-10.778,2.91-14.45,7.29c-3.925,4.67-5.745,10.986-5.003,17.315l0.258,2.183c-2.118-0.396-4.312-0.49-6.513-0.199
					l-29.275,3.88c-5.553,0.732-10.412,3.671-13.679,8.273c-3.488,4.904-4.755,11.264-3.479,17.45l17.35,83.957h-0.595
					c-5.096,0-9.901,2.237-13.188,6.136c-3.286,3.899-4.671,9.016-3.806,14.034l54.197,314.394
					c1.435,8.294,8.581,14.312,16.998,14.312h255.382c8.418,0,15.563-6.018,16.988-14.312l54.202-314.394
					c0.865-5.018-0.521-10.135-3.806-14.034C2005.169,492.215,2000.364,489.978,1995.268,489.978L1995.268,489.978z
					 M1956.856,395.495c1.445-2.692,4.161-4.355,6.744-4.003l29.271,3.869c1.692,0.228,2.716,1.218,3.281,2.014
					c1.049,1.475,1.41,3.509,0.979,5.568l-17.978,87.036h-11.115l7.398-58.443c0.752-5.889-0.936-11.788-4.622-16.191
					c-3.588-4.291-8.66-6.814-14.282-7.102l-1.172-0.058L1956.856,395.495z M1946.489,422.95l9.269,0.475
					c1.727,0.088,2.806,0.96,3.405,1.672c0.994,1.188,1.415,2.796,1.197,4.528l-7.646,60.354h-35.512l4.113-23.995
					c0.85-4.969-0.149-9.953-2.768-14.194l1.808-23.431c0.172-2.277,1.43-4.281,3.167-5.423c1.043-0.678,2.256-1.049,3.518-0.979
					l19.438,0.995H1946.489z M1908.752,363.294c0.099,0,0.197-0.005,0.296,0h0.005l29.964,1.708
					c1.816,0.109,3.003,1.083,3.678,1.885c1.236,1.479,1.8,3.583,1.543,5.771l-2.331,19.849l-0.004,0.004l-1.752,14.89
					l-12.338-0.628c-11.563-0.593-21.698,8.562-22.614,20.414l-1.163,15.052l-7.11-1.117l4.878-70.314
					C1902.086,366.635,1905.253,363.265,1908.752,363.294L1908.752,363.294z M1906.331,463.414l-4.682,27.336
					c-4.953,1.539-9.016,5.266-10.971,10.353c-5.938,15.459-16.276,28.677-29.904,38.218c-1.46,1.02-2.949,1.98-4.458,2.895
					l12.217-84.759c0.204-1.41,0.946-2.653,2.095-3.499c1.147-0.851,2.552-1.192,3.964-0.969l12.965,2.043
					c0.005,0,0.015,0,0.02,0.005l14.366,2.261c1.405,0.223,2.643,0.984,3.474,2.142
					C1906.247,460.603,1906.574,462.009,1906.331,463.414L1906.331,463.414z M1843.247,518.323l16.963-175.853
					c0.233-2.375,1.332-4.528,3.034-5.904c0.915-0.747,2.425-1.594,4.344-1.375l30.207,3.385c1.871,0.213,3.094,1.327,3.78,2.222
					c1.297,1.672,1.847,3.974,1.505,6.31l-0.268,1.831c-0.124,0.039-0.247,0.083-0.376,0.124c-0.158,0.055-0.316,0.109-0.47,0.163
					c-0.476,0.163-0.945,0.342-1.405,0.54c-0.119,0.049-0.238,0.099-0.357,0.153c-0.896,0.401-1.766,0.861-2.597,1.381
					c-0.08,0.039-0.149,0.09-0.223,0.139c-0.52,0.331-1.03,0.683-1.52,1.059c-0.044,0.029-0.09,0.058-0.134,0.094
					c-0.263,0.203-0.52,0.411-0.776,0.628l-0.164,0.138c-0.436,0.376-0.856,0.768-1.262,1.173c-0.104,0.104-0.203,0.203-0.307,0.312
					c-0.208,0.213-0.415,0.431-0.614,0.654c-0.218,0.247-0.43,0.494-0.639,0.751c-0.192,0.238-0.38,0.475-0.563,0.713
					c-0.139,0.188-0.272,0.376-0.41,0.569c-0.179,0.243-0.352,0.5-0.52,0.758c-0.194,0.292-0.377,0.589-0.555,0.891
					c-0.114,0.182-0.219,0.371-0.322,0.559c-0.188,0.342-0.371,0.688-0.543,1.04c-0.08,0.164-0.164,0.336-0.238,0.504
					c-0.169,0.356-0.327,0.722-0.476,1.088c-0.06,0.155-0.119,0.298-0.177,0.451c-0.179,0.455-0.338,0.925-0.49,1.396
					c-0.036,0.113-0.065,0.232-0.1,0.351c-0.129,0.431-0.243,0.87-0.352,1.321c-0.02,0.094-0.05,0.188-0.068,0.286
					c-0.114,0.516-0.208,1.04-0.293,1.564c-0.014,0.119-0.034,0.242-0.05,0.361c-0.073,0.544-0.138,1.098-0.177,1.658l-4.786,68.988
					l-4.894-0.768c-5.459-0.87-10.912,0.47-15.355,3.746c-4.444,3.281-7.324,8.102-8.115,13.569l-10.452,72.537L1843.247,518.323z
					 M1790.896,377.076c0.792-0.817,2.139-1.786,4.054-1.786h29.979c1.914,0,3.271,0.974,4.071,1.796
					c1.401,1.43,2.178,3.498,2.129,5.665l-2.994,131.475l-2.964-56.791c-0.307-5.922-2.786-11.416-6.978-15.464
					c-4.341-4.196-9.951-6.338-15.815-6.026l-12.209,0.647l-0.257-9.977v-0.005l-1.118-43.878
					C1788.738,380.565,1789.506,378.501,1790.896,377.076L1790.896,377.076z M1803.179,451.122c2.147-0.099,3.71,1.069,4.448,1.781
					c1.42,1.365,2.257,3.257,2.366,5.325l5.008,95.968c-0.54,0.01-1.085,0.03-1.624,0.03c-12.827,0-25.272-2.91-36.575-8.492
					l-8.63-85.675c-0.213-2.069,0.366-4.068,1.584-5.483c0.692-0.802,1.9-1.788,3.735-1.886L1803.179,451.122z M1725.178,340.798
					c0.693-0.901,1.911-2.009,3.782-2.222l30.205-3.385c1.926-0.218,3.426,0.628,4.351,1.375c1.692,1.376,2.796,3.528,3.028,5.904
					l8.181,84.799l0.257,10.125l-2.297,0.119c-5.621,0.301-10.763,2.845-14.47,7.17c-3.909,4.558-5.795,10.713-5.171,16.899
					l4.182,41.474l-9.432-22.6l-7.676-110.699c-0.039-0.56-0.104-1.108-0.178-1.653c-0.015-0.124-0.035-0.243-0.055-0.366
					c-0.079-0.524-0.179-1.049-0.292-1.569c-0.02-0.084-0.045-0.177-0.064-0.263c-0.104-0.459-0.222-0.909-0.356-1.355
					c-0.029-0.104-0.06-0.212-0.094-0.316c-0.148-0.485-0.316-0.96-0.5-1.436c-0.045-0.123-0.099-0.252-0.148-0.376
					c-0.169-0.416-0.346-0.826-0.529-1.227c-0.034-0.08-0.068-0.158-0.109-0.228c-0.208-0.446-0.439-0.87-0.678-1.292
					c-0.073-0.138-0.153-0.276-0.231-0.416c-0.243-0.405-0.49-0.811-0.753-1.197c-0.069-0.109-0.144-0.213-0.223-0.317
					c-0.218-0.316-0.441-0.628-0.673-0.924c-0.099-0.129-0.197-0.259-0.293-0.376c-0.286-0.361-0.584-0.713-0.896-1.049
					c-0.099-0.119-0.208-0.228-0.316-0.342c-0.268-0.288-0.535-0.559-0.815-0.826c-0.086-0.08-0.169-0.164-0.253-0.249
					c-0.347-0.322-0.697-0.623-1.063-0.925c-0.109-0.094-0.224-0.179-0.337-0.272c-0.377-0.296-0.762-0.589-1.153-0.866
					c-0.055-0.029-0.104-0.063-0.153-0.094c-0.381-0.262-0.776-0.509-1.173-0.743c-0.084-0.054-0.169-0.099-0.252-0.148
					c-0.441-0.257-0.891-0.494-1.352-0.717c-0.05-0.025-0.104-0.049-0.158-0.075c-0.476-0.228-0.96-0.441-1.455-0.628
					c0-0.005-0.005-0.005-0.01-0.005c-0.51-0.198-1.029-0.376-1.563-0.535c-0.021-0.005-0.035-0.01-0.05-0.019l-0.267-1.846
					C1723.338,344.772,1723.882,342.47,1725.178,340.798L1725.178,340.798z M1684.065,366.887c0.673-0.802,1.856-1.781,3.673-1.88
					l29.979-1.712h0.019c0.041,0,0.08,0,0.114,0c3.563-0.109,6.814,3.276,7.107,7.512l4.566,65.865l-3.771-9.042
					c-2.285-5.467-6.467-9.803-11.776-12.208c-0.659-0.301-1.326-0.559-2-0.792c-0.04-0.009-0.079-0.029-0.118-0.044
					c-0.653-0.218-1.303-0.395-1.96-0.554c-0.06-0.01-0.129-0.03-0.193-0.044c-0.638-0.149-1.281-0.258-1.925-0.342
					c-0.08-0.015-0.163-0.024-0.242-0.034c-0.633-0.075-1.271-0.119-1.905-0.14c-0.09,0-0.179,0-0.267-0.005
					c-0.104,0-0.213-0.009-0.317-0.009c-0.337,0-0.669,0.034-1.004,0.049c-0.283,0.014-0.574,0.019-0.856,0.044
					c-0.431,0.039-0.852,0.109-1.282,0.173c-0.263,0.044-0.534,0.063-0.797,0.118c-0.465,0.095-0.925,0.218-1.385,0.342
					c-0.218,0.06-0.44,0.099-0.664,0.164c-0.678,0.208-1.345,0.445-2.009,0.722l-9.095,3.806l-1.376-11.669l-4.063-34.55
					C1682.264,370.47,1682.824,368.367,1684.065,366.887L1684.065,366.887z M1675.49,440.561l4.497-1.885l4.529-1.885h0.005
					l18.398-7.701c1.989-0.826,3.85-0.242,4.785,0.179c1.796,0.812,3.222,2.311,4.018,4.216l37.853,90.703
					c-5.69-6.874-10.254-14.638-13.494-23.085c-2.594-6.76-8.923-11.124-16.118-11.124h-27.668l-19.333-40.692
					c-0.892-1.876-1.025-3.949-0.357-5.696c0.14-0.371,0.347-0.792,0.634-1.208C1673.713,441.69,1674.426,441.007,1675.49,440.561
					L1675.49,440.561z M1629.622,402.942c-0.426-2.059-0.069-4.093,0.979-5.568c0.563-0.792,1.588-1.786,3.286-2.009l29.271-3.874
					c2.574-0.337,5.29,1.316,6.74,4.008l1.607,13.643l1.861,15.83l-3.741,1.564c-5.196,2.178-9.18,6.299-11.214,11.62
					c-2.152,5.611-1.851,12.045,0.817,17.656l16.235,34.166h-27.86L1629.622,402.942z M1997.281,507.57l-24.006,139.257h-49.713
					c-4.197,0-7.602,3.4-7.602,7.601c0,4.197,3.404,7.601,7.602,7.601h47.091l-7.902,45.85h-38.185c-4.2,0-7.601,3.399-7.601,7.601
					c0,4.201,3.4,7.601,7.601,7.601h35.561l-17.043,98.873c-0.168,0.984-1.02,1.698-2.014,1.698h-255.382
					c-1,0-1.846-0.713-2.019-1.698l-17.042-98.873h35.564c4.196,0,7.602-3.4,7.602-7.601c0-4.202-3.405-7.601-7.602-7.601h-38.184
					l-7.907-45.85h47.322c4.197,0,7.602-3.404,7.602-7.601c0-4.201-3.404-7.601-7.602-7.601h-49.939l-24.012-139.257
					c-0.133-0.778,0.174-1.331,0.456-1.663c0.277-0.332,0.771-0.727,1.563-0.727h88.471c0.852,0,1.604,0.535,1.926,1.365
					c7.026,18.305,19.26,33.943,35.376,45.225c16.499,11.55,35.907,17.657,56.117,17.657c1.035,0,2.084-0.025,3.147-0.06
					c0.494-0.015,0.99-0.034,1.489-0.06c0.436-0.024,0.877-0.049,1.317-0.075c4.621-0.276,9.188-0.871,13.677-1.787
					c0.015-0.005,0.025-0.005,0.04-0.01c13.029-2.651,25.387-7.932,36.436-15.667c16.123-11.282,28.355-26.92,35.383-45.225
					c0.317-0.831,1.074-1.365,1.921-1.365h88.479c0.783,0,1.282,0.395,1.56,0.722C1997.113,506.239,1997.41,506.792,1997.281,507.57
					L1997.281,507.57z M1997.281,507.57"/>
			</g>
		</g>
		<g id="Burger">
			<g id="Fill_1_">
				<path fill="#912C2C" d="M1396.927,664.022H995.399c-13.792,0-24.976,11.178-24.976,24.974v21.878c0,5.423,4.4,9.828,9.833,9.828
					h431.817c5.429,0,9.828-4.405,9.828-9.828v-21.878C1421.902,675.201,1410.725,664.022,1396.927,664.022L1396.927,664.022z
					 M1396.927,664.022"/>
				<path fill="#7C1E1E" d="M1396.927,664.022h-33.641v56.686h48.788c5.429,0,9.828-4.405,9.828-9.833v-21.878
					C1421.902,675.201,1410.725,664.022,1396.927,664.022L1396.927,664.022z M1396.927,664.022"/>
				<path fill="#A0E557" d="M1413.723,634.182c13.004,0,23.971,10.797,23.98,24.356c0.01,19.365-22.061,29.612-47.704,25.857
					c-23.951-3.504-24.253-14.524-48.506-14.524s-24.253,14.524-48.512,14.524c-24.252,0-24.252-14.524-48.5-14.524
					c-24.254,0-24.254,14.524-48.506,14.524c-24.259,0-24.254-14.524-48.507-14.524s-24.253,14.524-48.505,14.524
					c-24.253,0-24.253-14.524-48.506-14.524c-24.253,0-24.56,11.015-48.506,14.524c-25.645,3.755-47.714-6.493-47.705-25.857
					c0.01-13.559,10.972-24.356,23.976-24.356H1413.723z M1413.723,634.182"/>
				<path fill="#93CC4A" d="M1437.703,658.538c-0.01-13.559-10.977-24.356-23.98-24.356h-36.393v47.081
					c3.439,1.272,7.502,2.375,12.669,3.133C1415.643,688.15,1437.713,677.903,1437.703,658.538L1437.703,658.538z M1437.703,658.538
					"/>
				<path fill="#EFA335" d="M1427.459,715.67h-462.77c-11.298,0-20.448,9.161-20.448,20.448c0,58.709,47.59,106.306,106.3,106.306
					h291.065c58.711,0,106.301-47.596,106.301-106.306C1447.907,724.831,1438.752,715.67,1427.459,715.67L1427.459,715.67z
					 M1427.459,715.67"/>
				<path fill="#FD8F31" d="M1427.459,715.67h-38.063v40.9c0,47.417-38.44,85.858-85.858,85.858h38.069
					c58.711,0,106.301-47.601,106.301-106.311C1447.907,724.831,1438.752,715.67,1427.459,715.67L1427.459,715.67z M1427.459,715.67
					"/>
				<path fill="#FC4E51" d="M1396.838,608.152H995.31c-13.796,0-24.975-11.179-24.975-24.976V561.3c0-5.434,4.404-9.833,9.832-9.833
					h431.813c5.429,0,9.832,4.4,9.832,9.833v21.877C1421.813,596.974,1410.635,608.152,1396.838,608.152L1396.838,608.152z
					 M1396.838,608.152"/>
				<path fill="#EA3942" d="M1411.98,551.466h-48.609v41.543c0,8.362-6.775,15.143-15.144,15.143h48.61
					c13.797,0,24.98-11.179,24.98-24.976V561.3C1421.813,555.866,1417.409,551.466,1411.98,551.466L1411.98,551.466z
					 M1411.98,551.466"/>
				<path fill="#FCCF3F" d="M1417.929,603.407H974.689c-10.051,0-18.587,8.224-18.398,18.275c0.183,9.743,8.14,17.587,17.928,17.587
					h281.619c4.577,0,8.996,1.633,12.475,4.611l39.965,34.249c11.68,10.001,29.104,9.249,39.882-1.717l30.858-31.409
					c3.604-3.667,8.532-5.735,13.673-5.735h24.773c10.046,0,18.587-8.226,18.394-18.275
					C1435.675,611.25,1427.718,603.407,1417.929,603.407L1417.929,603.407z M1417.929,603.407"/>
				<path fill="#EFA335" d="M1196.074,372.946C961.601,373.03,944.241,527.708,944.241,549.61c0,11.298,9.156,20.448,20.448,20.448
					h462.77c11.293,0,20.448-9.15,20.448-20.448C1447.907,527.708,1430.548,373.03,1196.074,372.946L1196.074,372.946z
					 M1196.074,372.946"/>
				<path fill="#EFC03C" d="M1417.929,603.407h-40.599v43.314l1.688-1.717c3.604-3.667,8.532-5.735,13.673-5.735h24.773
					c10.046,0,18.587-8.226,18.394-18.275C1435.675,611.25,1427.718,603.407,1417.929,603.407L1417.929,603.407z M1417.929,603.407"
					/>
				<path fill="#FD8F31" d="M1447.907,549.031c0-0.064-0.005-0.133-0.005-0.197c0-0.148-0.005-0.298-0.011-0.451
					c-0.005-0.073-0.005-0.148-0.005-0.222c-0.004-0.158-0.009-0.327-0.019-0.49c0-0.08,0-0.158-0.005-0.238
					c-0.011-0.177-0.016-0.366-0.025-0.553c-0.006-0.075-0.01-0.14-0.01-0.208c-0.01-0.228-0.025-0.456-0.04-0.693
					c0-0.044,0-0.085-0.005-0.124c-0.089-1.48-0.232-3.202-0.439-5.132v-0.003c-4.301-39.525-37.833-167.694-251.27-167.772
					c-10.16,0-19.903,0.302-29.262,0.861c142.049,8.511,193.979,78.469,212.566,128.192c7.818,20.923-7.822,43.197-30.156,43.197
					H964.689c-8.423,0-15.653-5.098-18.786-12.372c-1.306,7.76-1.662,13.644-1.662,16.786c0,11.298,9.156,20.448,20.448,20.448
					h462.77c11.293,0,20.448-9.15,20.448-20.448C1447.907,549.432,1447.907,549.234,1447.907,549.031L1447.907,549.031z
					 M1447.907,549.031"/>
			</g>
			<g id="Line_1_">
				<path d="M1429.518,708.144v-19.147c0-1.148-0.084-2.291-0.202-3.424c1.886-1.132,3.642-2.385,5.23-3.76
					c7.053-6.098,10.773-14.148,10.768-23.274c-0.005-7.814-2.879-15.26-7.848-21.011c3.899-4.633,6.116-10.531,6.002-16.678
					c-0.202-10.911-7.397-20.215-17.221-23.644c2.039-4.25,3.177-9.011,3.177-14.029V577.6c14.563-1.015,26.1-13.179,26.1-27.99
					c0-2.137-0.451-53.009-39.697-101.313c-19.943-24.549-46.344-43.992-78.479-57.79c-38.866-16.687-86.398-25.158-141.277-25.178
					c-69.116,0.025-126.194,13.392-169.643,39.718c-3.598,2.182-4.746,6.859-2.568,10.457c2.182,3.593,6.864,4.746,10.456,2.563
					c41.044-24.867,95.463-37.486,161.755-37.51c52.802,0.019,98.309,8.071,135.269,23.94c29.851,12.817,54.297,30.78,72.671,53.401
					c35.877,44.151,36.287,89.791,36.287,91.711c0,7.082-5.755,12.837-12.837,12.837h-462.77c-7.082,0-12.837-5.755-12.837-12.837
					c0-1.91,0.247-19.379,8.957-43.389c9.521-26.271,25.01-49.119,46.032-67.904c3.138-2.801,3.409-7.616,0.604-10.749
					c-2.801-3.137-7.611-3.404-10.749-0.603c-59.383,53.068-60.071,119.834-60.071,122.645c0,14.811,11.536,26.975,26.095,27.99
					v5.577c0,5.062,1.163,9.862,3.236,14.138c-3.727,1.332-7.161,3.494-9.972,6.354c-4.834,4.929-7.428,11.381-7.304,18.151
					c0.109,5.874,2.212,11.362,5.795,15.716c-4.964,5.755-7.834,13.203-7.838,21.001c-0.005,9.126,3.715,17.177,10.768,23.274
					c1.687,1.459,3.562,2.775,5.582,3.962c-0.104,1.069-0.179,2.139-0.179,3.222v19.127c-14.598,0.975-26.183,13.153-26.183,27.994
					c0,62.818,51.104,113.917,113.917,113.917h291.065c62.813,0,113.917-51.099,113.917-113.917
					C1455.523,721.341,1444.032,709.198,1429.518,708.144L1429.518,708.144z M1424.59,670.297c-6.998,6.052-19.83,8.57-33.492,6.571
					c-9.67-1.42-14.762-4.112-20.15-6.968c-1.238-0.652-2.49-1.316-3.796-1.96l17.295-17.601c2.157-2.198,5.162-3.46,8.244-3.46
					h24.769c2.365,0,4.696-0.317,6.957-0.955c3.559,3.158,5.672,7.759,5.677,12.624
					C1430.093,663.185,1428.242,667.14,1424.59,670.297L1424.59,670.297z M977.945,577.679h436.258v5.498
					c0,5.908-2.975,11.134-7.497,14.272c-0.13,0.089-0.259,0.173-0.387,0.257c-0.327,0.213-0.659,0.416-0.994,0.603
					c-0.119,0.069-0.233,0.134-0.353,0.199c-0.43,0.232-0.87,0.445-1.321,0.639c-0.024,0.009-0.05,0.024-0.073,0.034
					c-0.506,0.213-1.02,0.4-1.545,0.563c-0.059,0.021-0.119,0.036-0.177,0.05c-0.441,0.134-0.887,0.253-1.342,0.347
					c-0.144,0.029-0.282,0.06-0.426,0.084c-0.392,0.074-0.786,0.139-1.188,0.184c-0.147,0.014-0.296,0.034-0.444,0.054
					c-0.534,0.05-1.074,0.079-1.618,0.079H995.31c-9.575,0-17.364-7.789-17.364-17.359V577.679z M966.852,614.338
					c2.072-2.108,4.923-3.321,7.838-3.321h3.696c4.938,3.009,10.729,4.746,16.924,4.746h401.528c0.673,0,1.346-0.025,2.009-0.064
					c0.213-0.015,0.426-0.034,0.633-0.049c0.467-0.039,0.937-0.083,1.396-0.143c0.228-0.031,0.455-0.055,0.683-0.085
					c0.594-0.089,1.184-0.188,1.768-0.307c0.242-0.049,0.483-0.109,0.732-0.164c0.4-0.094,0.796-0.188,1.191-0.296
					c0.302-0.08,0.604-0.164,0.901-0.252c0.321-0.095,0.638-0.204,0.955-0.303c0.301-0.099,0.604-0.198,0.905-0.307
					c0.52-0.192,1.034-0.395,1.539-0.608c0.307-0.134,0.608-0.272,0.906-0.412c0.286-0.133,0.568-0.266,0.846-0.405
					c0.297-0.148,0.594-0.296,0.886-0.455c0.331-0.179,0.663-0.366,0.989-0.56c0.198-0.113,0.4-0.218,0.6-0.336h4.151
					c5.587,0,10.215,4.543,10.318,10.12c0.073,3.889-2.302,7.581-6.048,9.403h-0.005c-1.524,0.742-3.118,1.118-4.735,1.118h-24.773
					c-7.136,0-14.099,2.919-19.106,8.017l-30.858,31.409c-7.354,7.487-19.018,8.502-27.535,2.742
					c-0.182-0.125-0.366-0.252-0.549-0.381c-0.475-0.341-0.944-0.698-1.4-1.088c0,0-0.005-0.005-0.009-0.005l-39.966-34.249
					c-4.849-4.153-11.04-6.443-17.424-6.443H974.219c-1.568,0-3.087-0.357-4.522-1.064h-0.005c-3.499-1.718-5.716-5.191-5.791-9.057
					C963.852,618.886,964.902,616.327,966.852,614.338L966.852,614.338z M961.862,658.543c0-4.834,2.093-9.406,5.617-12.569
					c2.187,0.604,4.439,0.906,6.74,0.906h281.619c2.757,0,5.429,0.991,7.521,2.782l31.606,27.088
					c-0.634,0.02-1.296,0.035-1.979,0.035c-10.021,0-14.579-2.728-20.34-6.181c-6.531-3.91-13.935-8.343-28.166-8.343
					s-21.636,4.434-28.167,8.343c-5.761,3.453-10.313,6.181-20.339,6.181c-10.026,0-14.579-2.728-20.339-6.181
					c-6.532-3.91-13.936-8.343-28.168-8.343s-21.635,4.434-28.167,8.343c-5.759,3.453-10.312,6.181-20.338,6.181
					s-14.579-2.728-20.339-6.181c-6.532-3.91-13.935-8.343-28.167-8.343c-15.039,0-22.373,3.884-29.469,7.64
					c-5.384,2.851-10.472,5.547-20.14,6.962c-13.664,2-26.496-0.519-33.487-6.566C963.708,667.14,961.857,663.185,961.862,658.543
					L961.862,658.543z M1341.606,834.812h-291.065c-54.419,0-98.689-44.275-98.689-98.694c0-7.076,5.755-12.832,12.837-12.832
					h341.263c4.207,0,7.61-3.41,7.61-7.616c0-4.201-3.403-7.611-7.61-7.611H978.035v-16.671c4.33,0.901,8.936,1.376,13.722,1.376
					c3.682,0,7.467-0.278,11.298-0.832c12.267-1.801,19.067-5.399,25.064-8.571c6.195-3.286,11.09-5.878,22.338-5.878
					c10.021,0,14.578,2.731,20.343,6.18c6.533,3.915,13.935,8.349,28.168,8.349c14.227,0,21.63-4.434,28.162-8.349
					c5.765-3.448,10.319-6.18,20.338-6.18c10.026,0,14.579,2.731,20.344,6.18c6.533,3.915,13.935,8.349,28.168,8.349
					c14.227,0,21.63-4.434,28.162-8.349c5.765-3.448,10.317-6.18,20.339-6.18c10.025,0,14.578,2.731,20.344,6.18
					c6.532,3.915,13.936,8.349,28.162,8.349c6.78,0,12.46-0.985,17.923-3.098c5.152,2.549,10.765,3.826,16.37,3.826
					c9.586,0,19.146-3.696,26.308-10.986l2.133-2.167c2.859,1.01,5.358,2.321,8.115,3.775c5.997,3.177,12.791,6.77,25.064,8.571
					c3.83,0.559,7.616,0.832,11.298,0.832c4.924,0,9.659-0.5,14.099-1.455v16.75h-72.923c-4.201,0-7.61,3.411-7.61,7.611
					c0,4.206,3.409,7.616,7.61,7.616h86.085c7.082,0,12.842,5.755,12.842,12.832
					C1440.296,790.537,1396.026,834.812,1341.606,834.812L1341.606,834.812z M1341.606,834.812"/>
			</g>
		</g>
		<g id="Hot_Dog">
			<g id="Fill">
				<path fill="#EFA335" d="M748.411,476.403c-6.598-6.591-17.286-6.591-23.877,0l18.715-18.715
					c23.268-23.268,23.268-60.997,0-84.265s-60.996-23.268-84.259,0l-18.716,18.716c6.592-6.593,6.592-17.281,0-23.873
					c-28.989-28.994-75.99-28.994-104.979,0L288.202,615.36c-28.994,28.988-28.994,75.99,0,104.974
					c6.591,6.591,17.281,6.591,23.872,0l-18.711,18.715c-23.273,23.269-23.273,60.997,0,84.265c23.264,23.268,60.992,23.268,84.26,0
					l18.715-18.72c-6.591,6.596-6.591,17.285,0,23.881c28.989,28.989,75.991,28.989,104.98,0l247.092-247.098
					C777.398,552.395,777.398,505.392,748.411,476.403L748.411,476.403z M748.411,476.403"/>
				<path fill="#FC4E51" d="M293.363,823.319c-23.273-23.273-23.273-61.001,0-84.265L658.99,373.428
					c23.263-23.273,60.991-23.273,84.259,0c23.268,23.263,23.268,60.992,0,84.26L377.623,823.319
					C354.355,846.582,316.627,846.582,293.363,823.319L293.363,823.319z M293.363,823.319"/>
				<path fill="#EA3942" d="M743.249,373.428c-7.511-7.517-16.528-12.584-26.084-15.246c5.588,20.042,0.516,42.424-15.241,58.186
					L336.297,781.988c-15.757,15.755-38.143,20.828-58.181,15.241c2.663,9.556,7.73,18.572,15.241,26.089
					c23.27,23.263,60.997,23.263,84.265,0l365.625-365.631C766.517,434.42,766.517,396.691,743.249,373.428L743.249,373.428z
					 M743.249,373.428"/>
				<path fill="#FD8F31" d="M640.273,368.267c-0.109-0.109-0.218-0.218-0.327-0.327c-16.226-16.023-42.453-15.672-58.576,0.45
					L288.321,661.436c-16.118,16.122-16.469,42.349-0.446,58.576c0.109,0.109,0.218,0.218,0.327,0.327
					c6.591,6.591,17.281,6.591,23.872,0L640.273,392.14C646.865,385.547,646.865,374.859,640.273,368.267L640.273,368.267z
					 M640.273,368.267"/>
				<path fill="#A0E557" d="M574.567,419.964c-6.631,6.637-18.349,1.688-28.955,9.506c-17.666,13.04-16.29,22.997-28.34,35.046
					c-15.33,15.331-25.074,13.743-35.822,24.49c-17.394,17.395-15.49,32.73-26.821,45.686
					c-12.955,11.332-28.291,9.426-45.685,26.821c-10.749,10.748-9.16,20.493-24.49,35.823c-12.05,12.05-22.006,10.674-35.046,28.34
					c-7.819,10.604-2.871,22.323-9.506,28.955c-14.03,14.029-34.646,26.45-11.412,49.288l147.685-147.68l147.68-147.685
					C601.017,385.325,588.596,405.936,574.567,419.964L574.567,419.964z M574.567,419.964"/>
				<path fill="#FD8F31" d="M754.562,483.406c-3.608,9.486-9.219,18.393-16.86,26.034L429.376,817.766
					c-7.642,7.64-16.549,13.252-26.03,16.866c29.117,22.639,71.215,20.605,97.972-6.157l247.092-247.093
					C775.167,554.62,777.206,512.528,754.562,483.406L754.562,483.406z M754.562,483.406"/>
				<path fill="#A0E557" d="M696.712,542.105c-6.636,6.637-1.688,18.355-9.511,28.955c-13.035,17.671-22.991,16.29-35.041,28.345
					c-15.331,15.326-13.743,25.075-24.49,35.828c-17.395,17.39-32.735,15.479-45.686,26.816
					c-11.337,12.956-9.426,28.291-26.82,45.686c-10.749,10.748-20.497,9.164-35.823,24.49
					c-12.054,12.049-10.674,22.011-28.346,35.046c-10.6,7.824-22.318,2.869-28.954,9.506c-14.025,14.024-26.45,34.644-49.289,11.406
					l295.367-295.367C731.353,515.656,710.736,528.081,696.712,542.105L696.712,542.105z M696.712,542.105"/>
			</g>
			<g id="Line">
				<path d="M705.541,421.786c-9.239,9.239-17.647,9.491-28.291,9.818c-11.759,0.356-25.084,0.758-38.584,14.257
					c-13.506,13.499-13.906,26.826-14.262,38.584c-0.322,10.644-0.574,19.057-9.813,28.296c-9.239,9.234-17.646,9.486-28.296,9.813
					c-11.757,0.356-25.08,0.757-38.584,14.257c-13.5,13.504-13.901,26.827-14.257,38.584c-0.322,10.649-0.574,19.057-9.818,28.291
					c-9.234,9.239-17.647,9.496-28.291,9.818c-11.758,0.356-25.084,0.762-38.584,14.262c-13.504,13.5-13.906,26.825-14.262,38.584
					c-0.322,10.644-0.574,19.057-9.818,28.291c-9.234,9.239-17.647,9.496-28.291,9.818c-11.758,0.356-25.085,0.761-38.589,14.266
					c-13.504,13.501-13.906,26.827-14.262,38.584c-0.327,10.645-0.579,19.057-9.818,28.296c-2.969,2.969-2.969,7.785,0,10.754
					c1.485,1.479,3.43,2.222,5.369,2.222c1.951,0,3.896-0.742,5.38-2.222c13.504-13.505,13.905-26.832,14.261-38.589
					c0.327-10.65,0.579-19.057,9.818-28.296c9.239-9.244,17.652-9.497,28.301-9.818c11.757-0.356,25.079-0.763,38.579-14.267
					c13.504-13.5,13.911-26.827,14.267-38.579c0.322-10.649,0.579-19.057,9.813-28.296c9.234-9.239,17.647-9.491,28.296-9.813
					c11.758-0.356,25.08-0.763,38.579-14.262s13.906-26.827,14.262-38.584c0.327-10.644,0.579-19.057,9.813-28.291
					c9.239-9.239,17.652-9.491,28.296-9.818c11.757-0.356,25.084-0.758,38.584-14.257c13.5-13.5,13.901-26.827,14.257-38.584
					c0.322-10.644,0.579-19.057,9.813-28.296c9.244-9.234,17.652-9.491,28.296-9.813c11.757-0.356,25.084-0.757,38.584-14.257
					c2.969-2.97,2.969-7.784,0-10.753C713.324,418.822,708.509,418.822,705.541,421.786L705.541,421.786z M705.541,421.786"/>
				<path d="M753.785,471.029c-2.287-2.287-4.95-4.068-7.844-5.28l2.682-2.687c12.688-12.688,19.682-29.558,19.682-47.506
					c0-17.943-6.993-34.817-19.682-47.506c-26.192-26.188-68.815-26.193-95.013,0l-2.701,2.708c-1.193-2.866-2.94-5.542-5.261-7.869
					c-31.908-31.904-83.824-31.904-115.727,0l-5.553,5.557c-2.969,2.969-2.969,7.779,0,10.749c2.97,2.969,7.78,2.969,10.748,0
					l5.553-5.553c25.98-25.98,68.246-25.98,94.231-0.005c3.613,3.618,3.617,9.506,0,13.123l-11.323,11.323
					c-6.551-5.181-12.985-7.666-19.501-7.616c-12.544,0.184-21.611,9.957-29.612,18.577c-1.817,1.96-3.528,3.806-5.27,5.547
					c-1.267,1.272-3.87,1.619-8.008,2.079c-5.779,0.648-12.985,1.444-20.085,6.685c-11.615,8.571-16.083,16.281-20.027,23.081
					c-2.623,4.512-4.884,8.417-9.175,12.708c-7.461,7.463-13.4,10.422-19.141,13.283c-5.365,2.672-10.907,5.434-16.687,11.208
					c-10.942,10.941-14.989,21.091-18.562,30.042c-2.361,5.934-4.42,11.075-8.27,15.628c-4.552,3.85-9.699,5.909-15.628,8.269
					c-8.952,3.574-19.102,7.622-30.043,18.563c-5.774,5.779-8.536,11.322-11.208,16.687c-2.86,5.74-5.82,11.678-13.283,19.141
					c-4.289,4.296-8.194,6.552-12.708,9.174c-6.804,3.944-14.509,8.413-23.081,20.033c-5.239,7.095-6.036,14.301-6.685,20.085
					c-0.459,4.132-0.812,6.734-2.079,8.006c-1.742,1.737-3.588,3.45-5.546,5.271c-8.621,7.996-18.395,17.062-18.577,29.607
					c-0.09,6.522,2.415,12.95,7.61,19.507L306.7,714.965c-1.752,1.751-4.083,2.716-6.562,2.716c-2.479,0-4.81-0.965-6.562-2.716
					c-25.98-25.98-25.98-68.25,0-94.231l216.535-216.535c2.97-2.97,2.97-7.784,0-10.748c-2.97-2.969-7.783-2.969-10.748,0
					l-216.54,216.534c-15.454,15.456-23.966,36.001-23.966,57.864c0,21.858,8.512,42.405,23.966,57.864
					c2.292,2.287,4.948,4.063,7.848,5.28l-2.687,2.682c-12.688,12.694-19.675,29.563-19.675,47.506
					c0,17.949,6.988,34.819,19.675,47.506c13.099,13.099,30.305,19.651,47.506,19.651c17.206,0,34.407-6.552,47.506-19.651
					l2.692-2.682c1.208,2.895,2.99,5.558,5.275,7.843c15.955,15.955,36.907,23.932,57.864,23.932
					c20.952,0,41.91-7.977,57.864-23.932l5.553-5.546c2.968-2.97,2.968-7.785,0-10.754c-2.969-2.97-7.785-2.964-10.754,0
					l-5.547,5.553c-25.979,25.98-68.25,25.98-94.229,0c-1.752-1.752-2.718-4.083-2.718-6.563c0-2.474,0.965-4.8,2.708-6.556
					l11.322-11.323c6.438,5.102,12.753,7.616,19.156,7.616c0.119,0,0.238,0,0.357,0c12.539-0.184,21.609-9.958,29.612-18.582
					c1.81-1.955,3.528-3.805,5.27-5.542c1.267-1.271,3.865-1.619,8.001-2.079c5.786-0.644,12.99-1.449,20.087-6.685
					c11.62-8.577,16.088-16.281,20.031-23.081c2.619-4.518,4.885-8.422,9.174-12.708c7.463-7.468,13.402-10.422,19.142-13.283
					c5.364-2.672,10.906-5.434,16.682-11.208c10.94-10.947,14.995-21.086,18.562-30.038c2.37-5.934,4.418-11.08,8.273-15.633
					c4.553-3.855,9.7-5.903,15.628-8.274c8.953-3.569,19.096-7.621,30.043-18.563c5.775-5.774,8.536-11.316,11.209-16.682
					c2.86-5.74,5.814-11.673,13.281-19.141c4.291-4.291,8.19-6.557,12.708-9.174c6.8-3.944,14.505-8.413,23.08-20.033
					c5.236-7.101,6.043-14.301,6.686-20.085c0.461-4.138,0.807-6.735,2.079-8.001c1.737-1.742,3.587-3.459,5.542-5.271
					c8.626-8.001,18.399-17.072,18.582-29.612c0.094-6.526-2.415-12.955-7.616-19.512l11.313-11.303
					c0-0.005,0.005-0.005,0.005-0.005c1.752-1.756,4.083-2.726,6.562-2.726c2.479,0,4.809,0.97,6.561,2.726
					c25.98,25.975,25.98,68.246,0,94.226l-216.534,216.53c-2.969,2.969-2.969,7.785,0,10.752c1.484,1.48,3.43,2.228,5.374,2.228
					c1.945,0,3.894-0.748,5.374-2.228l216.535-216.534c15.459-15.46,23.971-36.006,23.971-57.864
					C777.756,507.035,769.244,486.483,753.785,471.029L753.785,471.029z M339.321,665.672c1.969-1.832,4.008-3.722,5.953-5.667
					c5.102-5.098,5.814-11.456,6.438-17.068c0.535-4.795,0.995-8.932,3.811-12.747c6.695-9.076,12.153-12.238,18.473-15.905
					c4.75-2.756,10.135-5.879,15.831-11.575c9.219-9.219,13.058-16.923,16.142-23.115c2.415-4.854,4.325-8.684,8.349-12.712
					c8.733-8.73,16.597-11.867,24.926-15.192c6.779-2.702,13.786-5.498,20.393-11.277c0.253-0.223,0.49-0.461,0.713-0.719
					c5.785-6.606,8.575-13.613,11.283-20.393c3.32-8.323,6.458-16.187,15.192-24.92c4.023-4.024,7.853-5.934,12.712-8.349
					c6.186-3.088,13.891-6.923,23.111-16.142c5.701-5.697,8.822-11.081,11.579-15.835c3.663-6.315,6.83-11.772,15.9-18.469
					c3.816-2.815,7.952-3.276,12.747-3.81c5.612-0.624,11.972-1.336,17.073-6.443c1.939-1.941,3.83-3.979,5.662-5.949
					c6.502-7.012,12.648-13.627,18.69-13.718c2.534-0.083,5.33,1.054,8.442,3.257L328.86,692.804
					c-2.198-3.113-3.291-5.933-3.256-8.442C325.693,678.32,332.313,672.174,339.321,665.672L339.321,665.672z M697.292,531.071
					c-1.975,1.825-4.013,3.72-5.958,5.66v0.005c-5.103,5.103-5.81,11.461-6.433,17.063c-0.535,4.795-0.994,8.938-3.811,12.747
					c-6.7,9.081-12.154,12.243-18.473,15.91c-4.755,2.756-10.14,5.879-15.835,11.575c-9.215,9.214-13.055,16.919-16.137,23.11
					c-2.416,4.854-4.33,8.689-8.354,12.712c-8.73,8.735-16.593,11.872-24.921,15.197c-6.78,2.702-13.787,5.498-20.394,11.279
					c-0.252,0.222-0.489,0.459-0.712,0.717c-5.786,6.606-8.582,13.614-11.282,20.389c-3.322,8.328-6.463,16.191-15.198,24.921
					c-4.017,4.027-7.854,5.938-12.708,8.353c-6.191,3.088-13.896,6.923-23.115,16.138c-5.695,5.696-8.818,11.085-11.575,15.835
					c-3.661,6.319-6.828,11.772-15.904,18.473c-3.816,2.814-7.953,3.276-12.749,3.809c-5.607,0.625-11.965,1.332-17.066,6.434
					c-1.941,1.945-3.836,3.983-5.662,5.958c-6.508,7.007-12.649,13.627-18.691,13.718c-2.523,0.059-5.335-1.054-8.442-3.257
					l283.875-283.879c2.202,3.107,3.295,5.938,3.261,8.447C710.92,518.422,704.298,524.563,697.292,531.071L697.292,531.071z
					 M737.875,452.314L372.249,817.94c-20.27,20.264-53.246,20.264-73.516,0c-9.818-9.818-15.222-22.868-15.222-36.759
					c0-13.881,5.404-26.936,15.222-36.753l365.625-365.63c10.135-10.13,23.452-15.197,36.757-15.197
					c13.317,0,26.624,5.067,36.758,15.197c9.818,9.823,15.228,22.877,15.228,36.758
					C753.102,429.441,747.692,442.497,737.875,452.314L737.875,452.314z M737.875,452.314"/>
			</g>
		</g>
	</g>
</g>
</svg>
